PalladioL-Roma - Patrick:Ray.ufo
<glyph name="one" format="1">
  <advance width="500"/>
  <unicode hex="0031"/>
  <outline>
    <contour>
      <point x="67.0" y="555.0" type="line"/>
      <point x="60.0" y="598.0" type="line"/>
      <point x="161" y="598"/>
      <point x="222.0" y="660.0"/>
      <point x="287.0" y="694.0" type="curve"/>
      <point x="301.0" y="689.0" type="line"/>
      <point x="301.0" y="96.0" type="line" smooth="yes"/>
      <point x="301.0" y="44.0"/>
      <point x="311.0" y="33.0"/>
      <point x="366.0" y="30.0" type="curve" smooth="yes"/>
      <point x="418.0" y="27.0" type="line"/>
      <point x="418.0" y="-3.0" type="line"/>
      <point x="377.0" y="-2.0"/>
      <point x="342.0" y="-2.0"/>
      <point x="330.0" y="-1.0" type="curve" smooth="yes"/>
      <point x="296.0" y="0.0"/>
      <point x="274" y="13"/>
      <point x="261" y="13" type="curve" smooth="yes"/>
      <point x="250" y="13"/>
      <point x="250.0" y="0.0"/>
      <point x="96.0" y="-3.0" type="curve"/>
      <point x="96.0" y="27.0" type="line"/>
      <point x="152.0" y="30.0" type="line" smooth="yes"/>
      <point x="206.0" y="33.0"/>
      <point x="217.0" y="44.0"/>
      <point x="217.0" y="96.0" type="curve" smooth="yes"/>
      <point x="217.0" y="581.0" type="line" smooth="yes"/>
      <point x="217.0" y="605.0"/>
      <point x="215.0" y="614.0"/>
      <point x="209.0" y="614.0" type="curve" smooth="yes"/>
      <point x="208.0" y="614.0"/>
      <point x="207.0" y="614.0"/>
      <point x="206.0" y="613.0" type="curve" smooth="yes"/>
      <point x="77.0" y="555.0" type="line"/>
    </contour>
  </outline>
</glyph>
<glyph name="two" format="1">
  <advance width="500"/>
  <unicode hex="0032"/>
  <outline>
    <contour>
      <point x="16.0" y="23.0" type="line"/>
      <point x="186.0" y="204.0" type="line" smooth="yes"/>
      <point x="299.0" y="324.0"/>
      <point x="354.0" y="398.0"/>
      <point x="354.0" y="473.0" type="curve" smooth="yes"/>
      <point x="354.0" y="558.0"/>
      <point x="286.0" y="627.0"/>
      <point x="200.0" y="627.0" type="curve" smooth="yes"/>
      <point x="133.0" y="627.0"/>
      <point x="97.0" y="587.0"/>
      <point x="81.0" y="529.0" type="curve" smooth="yes"/>
      <point x="68.0" y="483.0" type="line"/>
      <point x="39.0" y="483.0" type="line"/>
      <point x="56.0" y="619.0" type="line"/>
      <point x="105.0" y="669.0"/>
      <point x="154.0" y="689.0"/>
      <point x="226.0" y="689.0" type="curve" smooth="yes"/>
      <point x="353.0" y="689.0"/>
      <point x="431.0" y="618.0"/>
      <point x="431.0" y="503.0" type="curve" smooth="yes"/>
      <point x="431.0" y="428.0"/>
      <point x="401.0" y="373.0"/>
      <point x="304.0" y="270.0" type="curve" smooth="yes"/>
      <point x="122.0" y="77.0" type="line"/>
      <point x="307.0" y="81.0"/>
      <point x="353.0" y="82.0"/>
      <point x="468.0" y="87.0" type="curve"/>
      <point x="466.0" y="65.0"/>
      <point x="455.0" y="55.0"/>
      <point x="455.0" y="42.0" type="curve" smooth="yes"/>
      <point x="455.0" y="28.0"/>
      <point x="466.0" y="18.0"/>
      <point x="468.0" y="-3.0" type="curve"/>
      <point x="275.0" y="0.0"/>
      <point x="275" y="7"/>
      <point x="239" y="7" type="curve" smooth="yes"/>
      <point x="203" y="7"/>
      <point x="203.0" y="0.0"/>
      <point x="16.0" y="-3.0" type="curve"/>
    </contour>
  </outline>
</glyph>
<glyph name="three" format="1">
  <advance width="500"/>
  <unicode hex="0033"/>
  <outline>
    <contour>
      <point x="43.0" y="498.0" type="line"/>
      <point x="72.0" y="622.0" type="line"/>
      <point x="120.0" y="670.0"/>
      <point x="165.0" y="689.0"/>
      <point x="233.0" y="689.0" type="curve" smooth="yes"/>
      <point x="344.0" y="689.0"/>
      <point x="418.0" y="630.0"/>
      <point x="418.0" y="541.0" type="curve" smooth="yes"/>
      <point x="418.0" y="482.0"/>
      <point x="388.0" y="436.0"/>
      <point x="308.0" y="374.0" type="curve"/>
      <point x="358.0" y="365.0"/>
      <point x="381.0" y="357.0"/>
      <point x="406.0" y="339.0" type="curve" smooth="yes"/>
      <point x="442.0" y="314.0"/>
      <point x="462.0" y="272.0"/>
      <point x="462.0" y="224.0" type="curve" smooth="yes"/>
      <point x="462.0" y="177.0"/>
      <point x="445.0" y="133.0"/>
      <point x="411.0" y="92.0" type="curve" smooth="yes"/>
      <point x="356.0" y="25.0"/>
      <point x="264.0" y="-20.0"/>
      <point x="184.0" y="-20.0" type="curve" smooth="yes"/>
      <point x="147.0" y="-20.0"/>
      <point x="103.0" y="-12.0"/>
      <point x="50.0" y="6.0" type="curve"/>
      <point x="44.0" y="56.0"/>
      <point x="36.0" y="92.0"/>
      <point x="15.0" y="153.0" type="curve"/>
      <point x="42.0" y="163.0" type="line"/>
      <point x="61.0" y="109.0"/>
      <point x="74.0" y="86.0"/>
      <point x="98.0" y="64.0" type="curve" smooth="yes"/>
      <point x="128.0" y="36.0"/>
      <point x="169.0" y="21.0"/>
      <point x="215.0" y="21.0" type="curve" smooth="yes"/>
      <point x="308.0" y="21.0"/>
      <point x="380" y="88"/>
      <point x="380" y="190" type="curve" smooth="yes"/>
      <point x="380" y="281"/>
      <point x="321.0" y="334.0"/>
      <point x="238.0" y="334.0" type="curve" smooth="yes"/>
      <point x="211.0" y="334.0"/>
      <point x="192.0" y="329.0"/>
      <point x="154.0" y="312.0" type="curve"/>
      <point x="147.0" y="318.0" type="line"/>
      <point x="159.0" y="371.0" type="line"/>
      <point x="174.0" y="370.0" type="line" smooth="yes"/>
      <point x="187.0" y="369.0"/>
      <point x="198.0" y="368.0"/>
      <point x="206.0" y="368.0" type="curve" smooth="yes"/>
      <point x="277.0" y="368.0"/>
      <point x="345" y="431"/>
      <point x="345" y="506" type="curve" smooth="yes"/>
      <point x="345" y="569"/>
      <point x="283" y="631"/>
      <point x="218" y="631" type="curve" smooth="yes"/>
      <point x="166" y="631"/>
      <point x="103.0" y="588.0"/>
      <point x="92.0" y="554.0" type="curve" smooth="yes"/>
      <point x="74.0" y="498.0" type="line"/>
    </contour>
  </outline>
</glyph>
<glyph name="four" format="1">
  <advance width="500"/>
  <unicode hex="0034"/>
  <outline>
    <contour>
      <point x="280.0" y="181.0" type="line"/>
      <point x="13.0" y="181.0" type="line"/>
      <point x="2.0" y="204.0" type="line"/>
      <point x="285.0" y="667.0" type="line"/>
      <point x="359.0" y="694.0" type="line"/>
      <point x="371.0" y="689.0" type="line"/>
      <point x="366.0" y="648.0"/>
      <point x="364.0" y="562.0"/>
      <point x="364.0" y="384.0" type="curve" smooth="yes"/>
      <point x="364.0" y="245.0" type="line"/>
      <point x="388.0" y="245.0" type="line"/>
      <point x="391.0" y="245.0" type="line"/>
      <point x="406.0" y="244.0"/>
      <point x="416.0" y="227.0"/>
      <point x="472.0" y="248.0" type="curve"/>
      <point x="472.0" y="177.0" type="line"/>
      <point x="444.0" y="180.0"/>
      <point x="412.0" y="194.0"/>
      <point x="364.0" y="181.0" type="curve"/>
      <point x="364.0" y="106.0" type="line" smooth="yes"/>
      <point x="364.0" y="46.0"/>
      <point x="375.0" y="33.0"/>
      <point x="424.0" y="30.0" type="curve" smooth="yes"/>
      <point x="472.0" y="27.0" type="line"/>
      <point x="472.0" y="-3.0" type="line"/>
      <point x="339.0" y="0.0"/>
      <point x="339.0" y="9.0"/>
      <point x="315.0" y="9.0" type="curve" smooth="yes"/>
      <point x="291.0" y="9.0"/>
      <point x="291.0" y="0.0"/>
      <point x="158.0" y="-3.0" type="curve"/>
      <point x="158.0" y="27.0" type="line"/>
      <point x="220.0" y="30.0" type="line" smooth="yes"/>
      <point x="269.0" y="32.0"/>
      <point x="280.0" y="46.0"/>
      <point x="280.0" y="106.0" type="curve" smooth="yes"/>
    </contour>
    <contour>
      <point x="280.0" y="245.0" type="line"/>
      <point x="280.0" y="597.0" type="line"/>
      <point x="65.0" y="245.0" type="line"/>
    </contour>
  </outline>
</glyph>
<glyph name="five" format="1">
  <advance width="500"/>
  <unicode hex="0035"/>
  <outline>
    <contour>
      <point x="127.0" y="605.0" type="curve"/>
      <point x="118.0" y="396.0" type="line"/>
      <point x="180.0" y="433.0"/>
      <point x="216.0" y="446.0"/>
      <point x="264.0" y="446.0" type="curve" smooth="yes"/>
      <point x="378.0" y="446.0"/>
      <point x="450" y="366"/>
      <point x="450" y="253" type="curve" smooth="yes"/>
      <point x="450" y="179"/>
      <point x="427.0" y="111.0"/>
      <point x="366.0" y="57.0" type="curve" smooth="yes"/>
      <point x="311.0" y="9.0"/>
      <point x="240.0" y="-20.0"/>
      <point x="173.0" y="-20.0" type="curve" smooth="yes"/>
      <point x="130.0" y="-20.0"/>
      <point x="90.0" y="-11.0"/>
      <point x="62.0" y="4.0" type="curve"/>
      <point x="48.0" y="48.0"/>
      <point x="36.0" y="80.0"/>
      <point x="13.0" y="137.0" type="curve"/>
      <point x="37.0" y="151.0" type="line"/>
      <point x="83.0" y="69.0" type="line" smooth="yes"/>
      <point x="97.0" y="43.0"/>
      <point x="147.0" y="25.0"/>
      <point x="201.0" y="25.0" type="curve" smooth="yes"/>
      <point x="310.0" y="25.0"/>
      <point x="383" y="90"/>
      <point x="383" y="201" type="curve" smooth="yes"/>
      <point x="383" y="309"/>
      <point x="314.0" y="377.0"/>
      <point x="218.0" y="377.0" type="curve" smooth="yes"/>
      <point x="169.0" y="377.0"/>
      <point x="142.0" y="363.0"/>
      <point x="95.0" y="316.0" type="curve"/>
      <point x="75.0" y="322.0" type="line"/>
      <point x="78.0" y="366.0"/>
      <point x="92.0" y="462.0"/>
      <point x="92.0" y="547.0" type="curve" smooth="yes"/>
      <point x="92.0" y="579.0"/>
      <point x="80.0" y="623.0"/>
      <point x="79.0" y="684.0" type="curve"/>
      <point x="84.0" y="689.0" type="line"/>
      <point x="159.0" y="685.0"/>
      <point x="203.0" y="684.0"/>
      <point x="258.0" y="684.0" type="curve" smooth="yes"/>
      <point x="312.0" y="684.0"/>
      <point x="357.0" y="685.0"/>
      <point x="432.0" y="689.0" type="curve"/>
      <point x="437.0" y="684.0" type="line"/>
      <point x="435.0" y="666.0"/>
      <point x="435.0" y="658.0"/>
      <point x="435.0" y="644.0" type="curve" smooth="yes"/>
      <point x="435.0" y="631.0"/>
      <point x="435.0" y="623.0"/>
      <point x="437.0" y="605.0" type="curve"/>
      <point x="432.0" y="600.0" type="line"/>
      <point x="312.0" y="600.0"/>
      <point x="256.0" y="601.0"/>
    </contour>
  </outline>
</glyph>
<glyph name="six" format="1">
  <advance width="500"/>
  <unicode hex="0036"/>
  <outline>
    <contour>
      <point x="416.0" y="672.0" type="line"/>
      <point x="416.0" y="664.0" type="line"/>
      <point x="236.0" y="610.0"/>
      <point x="152.0" y="512.0"/>
      <point x="131.0" y="331.0" type="curve"/>
      <point x="142.0" y="339.0"/>
      <point x="143.0" y="340.0"/>
      <point x="154.0" y="349.0" type="curve" smooth="yes"/>
      <point x="213.0" y="396.0"/>
      <point x="243.0" y="409.0"/>
      <point x="293.0" y="409.0" type="curve" smooth="yes"/>
      <point x="399.0" y="409.0"/>
      <point x="468.0" y="334.0"/>
      <point x="468.0" y="219.0" type="curve" smooth="yes"/>
      <point x="468.0" y="83.0"/>
      <point x="371.0" y="-20.0"/>
      <point x="241.0" y="-20.0" type="curve" smooth="yes"/>
      <point x="112.0" y="-20.0"/>
      <point x="32.0" y="82.0"/>
      <point x="32.0" y="247.0" type="curve" smooth="yes"/>
      <point x="32.0" y="384.0"/>
      <point x="88.0" y="506.0"/>
      <point x="191.0" y="593.0" type="curve" smooth="yes"/>
      <point x="242.0" y="637.0"/>
      <point x="283.0" y="657.0"/>
      <point x="379.0" y="689.0" type="curve"/>
    </contour>
    <contour>
      <point x="255.0" y="349.0" type="curve" smooth="yes"/>
      <point x="207.0" y="349.0"/>
      <point x="160.0" y="325.0"/>
      <point x="138.0" y="291.0" type="curve" smooth="yes"/>
      <point x="127.0" y="274.0"/>
      <point x="110" y="255"/>
      <point x="110" y="220" type="curve" smooth="yes"/>
      <point x="110" y="86"/>
      <point x="169.0" y="13.0"/>
      <point x="254.0" y="13.0" type="curve" smooth="yes"/>
      <point x="331.0" y="13.0"/>
      <point x="397" y="80"/>
      <point x="397" y="184" type="curve" smooth="yes"/>
      <point x="397" y="283"/>
      <point x="331.0" y="349.0"/>
    </contour>
  </outline>
</glyph>
<glyph name="seven" format="1">
  <advance width="500"/>
  <unicode hex="0037"/>
  <outline>
    <contour>
      <point x="56.0" y="10.0" type="line"/>
      <point x="300.0" y="402.0" type="line" smooth="yes"/>
      <point x="338.0" y="463.0"/>
      <point x="369.0" y="521.0"/>
      <point x="409.0" y="603.0" type="curve"/>
      <point x="142.0" y="603.0" type="line" smooth="yes"/>
      <point x="96.0" y="603.0"/>
      <point x="89.0" y="595.0"/>
      <point x="81.0" y="533.0" type="curve" smooth="yes"/>
      <point x="74.0" y="477.0" type="line"/>
      <point x="44.0" y="477.0" type="line"/>
      <point x="47.0" y="568.0"/>
      <point x="56.0" y="568.0"/>
      <point x="56.0" y="579.0" type="curve" smooth="yes"/>
      <point x="56.0" y="589.0"/>
      <point x="47.0" y="589.0"/>
      <point x="44.0" y="684.0" type="curve"/>
      <point x="54.0" y="689.0" type="line"/>
      <point x="151.0" y="685.0"/>
      <point x="200.0" y="673.0"/>
      <point x="273.0" y="673.0" type="curve" smooth="yes"/>
      <point x="354.0" y="673.0"/>
      <point x="389.0" y="685.0"/>
      <point x="497.0" y="689.0" type="curve"/>
      <point x="497.0" y="659.0" type="line"/>
      <point x="296.0" y="330.0" type="line" smooth="yes"/>
      <point x="225.0" y="213.0"/>
      <point x="199.0" y="106.0"/>
      <point x="157.0" y="-3.0" type="curve"/>
      <point x="118.0" y="0.0"/>
      <point x="118" y="9"/>
      <point x="111" y="9" type="curve" smooth="yes"/>
      <point x="104" y="9"/>
      <point x="104.0" y="0.0"/>
      <point x="65.0" y="-3.0" type="curve"/>
    </contour>
  </outline>
</glyph>
<glyph name="A" format="1">
  <advance width="778"/>
  <unicode hex="0041"/>
  <outline>
    <contour>
      <point x="408.0" y="700.0" type="line"/>
      <point x="650.0" y="132.0" type="line" smooth="yes"/>
      <point x="685.0" y="51.0"/>
      <point x="696.0" y="34.0"/>
      <point x="722.0" y="30.0" type="curve"/>
      <point x="756.0" y="27.0" type="line"/>
      <point x="756.0" y="-3.0" type="line"/>
      <point x="648.0" y="0.0"/>
      <point x="625.0" y="12.0"/>
      <point x="606.0" y="12.0" type="curve" smooth="yes"/>
      <point x="590.0" y="12.0"/>
      <point x="613.0" y="0.0"/>
      <point x="490.0" y="-3.0" type="curve"/>
      <point x="490.0" y="27.0" type="line"/>
      <point x="537.0" y="30.0" type="line" smooth="yes"/>
      <point x="562.0" y="32.0"/>
      <point x="578.0" y="39.0"/>
      <point x="578.0" y="50.0" type="curve" smooth="yes"/>
      <point x="578.0" y="59.0"/>
      <point x="574.0" y="72.0"/>
      <point x="557.0" y="114.0" type="curve" smooth="yes"/>
      <point x="511.0" y="229.0" type="line"/>
      <point x="223.0" y="229.0" type="line"/>
      <point x="195.0" y="162.0" type="line" smooth="yes"/>
      <point x="174.0" y="112.0"/>
      <point x="160.0" y="69.0"/>
      <point x="160.0" y="56.0" type="curve" smooth="yes"/>
      <point x="160.0" y="40.0"/>
      <point x="173.0" y="33.0"/>
      <point x="208.0" y="30.0" type="curve" smooth="yes"/>
      <point x="245.0" y="27.0" type="line"/>
      <point x="245.0" y="-3.0" type="line"/>
      <point x="137.0" y="0.0"/>
      <point x="166" y="13"/>
      <point x="153" y="13" type="curve" smooth="yes"/>
      <point x="137" y="13"/>
      <point x="108.0" y="0.0"/>
      <point x="15.0" y="-3.0" type="curve"/>
      <point x="15.0" y="27.0" type="line"/>
      <point x="52.0" y="30.0" type="line" smooth="yes"/>
      <point x="74.0" y="32.0"/>
      <point x="94.0" y="50.0"/>
      <point x="106.0" y="79.0" type="curve" smooth="yes"/>
      <point x="284.0" y="484.0" type="line"/>
      <point x="337.0" y="605.0" type="line"/>
      <point x="376.0" y="700.0" type="line"/>
    </contour>
    <contour>
      <point x="240.0" y="269.0" type="line"/>
      <point x="493.0" y="269.0" type="line"/>
      <point x="367.0" y="567.0" type="line"/>
    </contour>
  </outline>
</glyph>
<glyph name="B" format="1">
  <advance width="611"/>
  <unicode hex="0042"/>
  <outline>
    <contour>
      <point x="338.0" y="692.0" type="curve"/>
      <point x="363.0" y="692.0" type="line" smooth="yes"/>
      <point x="479.0" y="692.0"/>
      <point x="542.0" y="644.0"/>
      <point x="542.0" y="556.0" type="curve" smooth="yes"/>
      <point x="542.0" y="504.0"/>
      <point x="517.0" y="461.0"/>
      <point x="469.0" y="428.0" type="curve" smooth="yes"/>
      <point x="441.0" y="409.0"/>
      <point x="418.0" y="400.0"/>
      <point x="369.0" y="390.0" type="curve"/>
      <point x="446.0" y="384.0"/>
      <point x="480.0" y="375.0"/>
      <point x="518.0" y="347.0" type="curve" smooth="yes"/>
      <point x="556.0" y="320.0"/>
      <point x="576.0" y="279.0"/>
      <point x="576.0" y="228.0" type="curve" smooth="yes"/>
      <point x="576.0" y="158.0"/>
      <point x="541.0" y="90.0"/>
      <point x="482.0" y="48.0" type="curve" smooth="yes"/>
      <point x="437.0" y="15.0"/>
      <point x="371.0" y="-3.0"/>
      <point x="298.0" y="-3.0" type="curve" smooth="yes"/>
      <point x="288.0" y="-3.0"/>
      <point x="288.0" y="-3.0"/>
      <point x="208.0" y="-1.0" type="curve" smooth="yes"/>
      <point x="196.0" y="0.0"/>
      <point x="176" y="15"/>
      <point x="165" y="15" type="curve" smooth="yes"/>
      <point x="146" y="15"/>
      <point x="134.0" y="-1.0"/>
      <point x="65.0" y="-3.0" type="curve"/>
      <point x="65.0" y="20.0" type="line"/>
      <point x="91.0" y="30.0" type="line" smooth="yes"/>
      <point x="105.0" y="36.0"/>
      <point x="113.0" y="58.0"/>
      <point x="113.0" y="95.0" type="curve" smooth="yes"/>
      <point x="113.0" y="569.0" type="line" smooth="yes"/>
      <point x="113.0" y="648.0"/>
      <point x="109.0" y="655.0"/>
      <point x="62.0" y="659.0" type="curve" smooth="yes"/>
      <point x="26.0" y="662.0" type="line"/>
      <point x="26.0" y="692.0" type="line"/>
      <point x="165.0" y="689.0"/>
      <point x="159" y="676"/>
      <point x="178" y="676" type="curve" smooth="yes"/>
      <point x="193" y="676"/>
      <point x="199.0" y="689.0"/>
    </contour>
    <contour>
      <point x="208.0" y="362.0" type="curve"/>
      <point x="208.0" y="47.0" type="line"/>
      <point x="233.0" y="41.0"/>
      <point x="256.0" y="39.0"/>
      <point x="285.0" y="39.0" type="curve" smooth="yes"/>
      <point x="404.0" y="39.0"/>
      <point x="473.0" y="102.0"/>
      <point x="473.0" y="208.0" type="curve" smooth="yes"/>
      <point x="473.0" y="315.0"/>
      <point x="410.0" y="364.0"/>
      <point x="275.0" y="364.0" type="curve" smooth="yes"/>
      <point x="256.0" y="364.0"/>
      <point x="247.0" y="364.0"/>
    </contour>
    <contour>
      <point x="208.0" y="644.0" type="curve"/>
      <point x="208.0" y="401.0" type="line"/>
      <point x="239.0" y="399.0"/>
      <point x="252.0" y="399.0"/>
      <point x="269.0" y="399.0" type="curve" smooth="yes"/>
      <point x="383.0" y="399.0"/>
      <point x="443.0" y="446.0"/>
      <point x="443.0" y="533.0" type="curve" smooth="yes"/>
      <point x="443.0" y="616.0"/>
      <point x="396.0" y="652.0"/>
      <point x="289.0" y="652.0" type="curve" smooth="yes"/>
      <point x="257.0" y="652.0"/>
      <point x="234.0" y="650.0"/>
    </contour>
  </outline>
</glyph>
<glyph name="C" format="1">
  <advance width="709"/>
  <unicode hex="0043"/>
  <outline>
    <contour>
      <point x="670.0" y="84.0" type="line"/>
      <point x="609" y="36" type="line"/>
      <point x="540" y="0"/>
      <point x="498.0" y="-20.0"/>
      <point x="415.0" y="-20.0" type="curve" smooth="yes"/>
      <point x="180.0" y="-20.0"/>
      <point x="22.0" y="126.0"/>
      <point x="22.0" y="342.0" type="curve" smooth="yes"/>
      <point x="22.0" y="477.0"/>
      <point x="82.0" y="582.0"/>
      <point x="196.0" y="649.0" type="curve" smooth="yes"/>
      <point x="263.0" y="688.0"/>
      <point x="346.0" y="709.0"/>
      <point x="433.0" y="709.0" type="curve" smooth="yes"/>
      <point x="506.0" y="709.0"/>
      <point x="579.0" y="696.0"/>
      <point x="664.0" y="668.0" type="curve"/>
      <point x="650.0" y="602.0"/>
      <point x="646.0" y="566.0"/>
      <point x="645.0" y="516.0" type="curve"/>
      <point x="614.0" y="516.0" type="line"/>
      <point x="624.0" y="607.0" type="line" smooth="yes"/>
      <point x="628.0" y="646.0"/>
      <point x="513.0" y="667.0"/>
      <point x="415.0" y="667.0" type="curve" smooth="yes"/>
      <point x="243.0" y="667.0"/>
      <point x="129.0" y="545.0"/>
      <point x="129.0" y="361.0" type="curve" smooth="yes"/>
      <point x="129.0" y="164.0"/>
      <point x="259.0" y="34.0"/>
      <point x="454.0" y="34.0" type="curve" smooth="yes"/>
      <point x="530.0" y="34.0"/>
      <point x="599.0" y="54.0"/>
      <point x="661.0" y="94.0" type="curve"/>
    </contour>
  </outline>
</glyph>
<glyph name="G" format="1">
  <advance width="763"/>
  <unicode hex="0047"/>
  <outline>
    <contour>
      <point x="641.0" y="516.0" type="line"/>
      <point x="641.0" y="569.0" type="line" smooth="yes"/>
      <point x="641.0" y="607.0"/>
      <point x="616.0" y="630.0"/>
      <point x="558.0" y="649.0" type="curve" smooth="yes"/>
      <point x="520.0" y="661.0"/>
      <point x="476.0" y="667.0"/>
      <point x="424.0" y="667.0" type="curve" smooth="yes"/>
      <point x="237.0" y="667.0"/>
      <point x="129.0" y="555.0"/>
      <point x="129.0" y="362.0" type="curve" smooth="yes"/>
      <point x="129.0" y="154.0"/>
      <point x="255.0" y="22.0"/>
      <point x="453.0" y="22.0" type="curve" smooth="yes"/>
      <point x="519.0" y="22.0"/>
      <point x="579.0" y="36.0"/>
      <point x="590.0" y="55.0" type="curve" smooth="yes"/>
      <point x="594.0" y="62.0"/>
      <point x="596.0" y="74.0"/>
      <point x="596.0" y="98.0" type="curve" smooth="yes"/>
      <point x="596.0" y="199.0" type="line" smooth="yes"/>
      <point x="596.0" y="223.0"/>
      <point x="587.0" y="232.0"/>
      <point x="562.0" y="234.0" type="curve" smooth="yes"/>
      <point x="479.0" y="241.0" type="line"/>
      <point x="479.0" y="271.0" type="line"/>
      <point x="566.0" y="269.0"/>
      <point x="587.0" y="259.0"/>
      <point x="616.0" y="259.0" type="curve" smooth="yes"/>
      <point x="647.0" y="259.0"/>
      <point x="635.0" y="269.0"/>
      <point x="724.0" y="271.0" type="curve"/>
      <point x="728.0" y="246.0" type="line"/>
      <point x="699.0" y="236.0" type="line" smooth="yes"/>
      <point x="689.0" y="232.0"/>
      <point x="688.0" y="230.0"/>
      <point x="688.0" y="199.0" type="curve" smooth="yes"/>
      <point x="688.0" y="31.0" type="line"/>
      <point x="552.0" y="-7.0"/>
      <point x="483.0" y="-20.0"/>
      <point x="412.0" y="-20.0" type="curve" smooth="yes"/>
      <point x="296.0" y="-20.0"/>
      <point x="188.0" y="20.0"/>
      <point x="119.0" y="89.0" type="curve"/>
      <point x="56.0" y="150.0"/>
      <point x="22.0" y="240.0"/>
      <point x="22.0" y="341.0" type="curve" smooth="yes"/>
      <point x="22.0" y="563.0"/>
      <point x="192.0" y="709.0"/>
      <point x="450.0" y="709.0" type="curve" smooth="yes"/>
      <point x="530.0" y="709.0"/>
      <point x="581.0" y="700.0"/>
      <point x="692.0" y="668.0" type="curve"/>
      <point x="678.0" y="614.0"/>
      <point x="672.0" y="567.0"/>
      <point x="672.0" y="516.0" type="curve"/>
    </contour>
  </outline>
</glyph>
<glyph name="L" format="1">
  <advance width="611"/>
  <unicode hex="004C"/>
  <outline>
    <contour>
      <point x="216.0" y="569.0" type="curve" smooth="yes"/>
      <point x="216.0" y="47.0" type="line"/>
      <point x="242.0" y="41.0"/>
      <point x="265.0" y="39.0"/>
      <point x="301.0" y="39.0" type="curve" smooth="yes"/>
      <point x="420.0" y="39.0"/>
      <point x="507.0" y="46.0"/>
      <point x="520.0" y="57.0" type="curve" smooth="yes"/>
      <point x="526.0" y="62.0"/>
      <point x="533.0" y="82.0"/>
      <point x="539.0" y="111.0" type="curve" smooth="yes"/>
      <point x="540.0" y="112.0"/>
      <point x="541.0" y="119.0"/>
      <point x="542.0" y="122.0" type="curve" smooth="yes"/>
      <point x="554.0" y="172.0" type="line"/>
      <point x="586.0" y="172.0" type="line"/>
      <point x="576.0" y="75.0"/>
      <point x="572.0" y="43.0"/>
      <point x="565.0" y="0.0" type="curve"/>
      <point x="429.0" y="-3.0"/>
      <point x="429.0" y="-3.0"/>
      <point x="397.0" y="-3.0" type="curve" smooth="yes"/>
      <point x="369.0" y="-3.0"/>
      <point x="260.0" y="-2.0"/>
      <point x="211.0" y="-1.0" type="curve" smooth="yes"/>
      <point x="189.0" y="0.0"/>
      <point x="173" y="15"/>
      <point x="164" y="15" type="curve" smooth="yes"/>
      <point x="138" y="15"/>
      <point x="131.0" y="0.0"/>
      <point x="65.0" y="-3.0" type="curve"/>
      <point x="65.0" y="20.0" type="line"/>
      <point x="96.0" y="36.0" type="line" smooth="yes"/>
      <point x="112.0" y="44.0"/>
      <point x="121.0" y="66.0"/>
      <point x="121.0" y="95.0" type="curve" smooth="yes"/>
      <point x="121.0" y="569.0" type="line" smooth="yes"/>
      <point x="121.0" y="648.0"/>
      <point x="116.0" y="656.0"/>
      <point x="70.0" y="659.0" type="curve" smooth="yes"/>
      <point x="22.0" y="662.0" type="line"/>
      <point x="22.0" y="692.0" type="line"/>
      <point x="94.0" y="690.0"/>
      <point x="118.0" y="676.0"/>
      <point x="168.0" y="676.0" type="curve" smooth="yes"/>
      <point x="220.0" y="676.0"/>
      <point x="242.0" y="689.0"/>
      <point x="315.0" y="692.0" type="curve"/>
      <point x="315.0" y="662.0" type="line"/>
      <point x="267.0" y="659.0" type="line" smooth="yes"/>
      <point x="221.0" y="656.0"/>
      <point x="216.0" y="648.0"/>
    </contour>
  </outline>
</glyph>
<glyph name="P" format="1">
  <advance width="604"/>
  <unicode hex="0050"/>
  <outline>
    <contour>
      <point x="216.0" y="642.0" type="curve"/>
      <point x="216.0" y="120.0" type="line" smooth="yes"/>
      <point x="216.0" y="41.0"/>
      <point x="221.0" y="33.0"/>
      <point x="267.0" y="30.0" type="curve" smooth="yes"/>
      <point x="315.0" y="27.0" type="line"/>
      <point x="315.0" y="-3.0" type="line"/>
      <point x="256.0" y="-1.0"/>
      <point x="222.0" y="13.0"/>
      <point x="170.0" y="13.0" type="curve" smooth="yes"/>
      <point x="118.0" y="13.0"/>
      <point x="81.0" y="-1.0"/>
      <point x="22.0" y="-3.0" type="curve"/>
      <point x="22.0" y="27.0" type="line"/>
      <point x="70.0" y="30.0" type="line" smooth="yes"/>
      <point x="116.0" y="33.0"/>
      <point x="121.0" y="41.0"/>
      <point x="121.0" y="120.0" type="curve" smooth="yes"/>
      <point x="121.0" y="569.0" type="line" smooth="yes"/>
      <point x="121.0" y="643.0"/>
      <point x="113.0" y="656.0"/>
      <point x="68.0" y="659.0" type="curve" smooth="yes"/>
      <point x="23.0" y="662.0" type="line"/>
      <point x="23.0" y="692.0" type="line"/>
      <point x="183.0" y="689.0"/>
      <point x="172" y="680"/>
      <point x="194" y="680" type="curve" smooth="yes"/>
      <point x="223" y="680"/>
      <point x="310.0" y="690.0"/>
      <point x="347.0" y="691.0" type="curve" smooth="yes"/>
      <point x="360.0" y="692.0"/>
      <point x="370.0" y="692.0"/>
      <point x="375.0" y="692.0" type="curve" smooth="yes"/>
      <point x="502.0" y="692.0"/>
      <point x="580.0" y="633.0"/>
      <point x="580.0" y="537.0" type="curve" smooth="yes"/>
      <point x="580.0" y="417.0"/>
      <point x="475.0" y="324.0"/>
      <point x="338.0" y="324.0" type="curve" smooth="yes"/>
      <point x="318.0" y="324.0"/>
      <point x="304.0" y="325.0"/>
      <point x="280.0" y="330.0" type="curve"/>
      <point x="270.0" y="366.0" type="line"/>
      <point x="296.0" y="358.0"/>
      <point x="311.0" y="356.0"/>
      <point x="332.0" y="356.0" type="curve" smooth="yes"/>
      <point x="419.0" y="356.0"/>
      <point x="497.0" y="419.0"/>
      <point x="497.0" y="509.0" type="curve" smooth="yes"/>
      <point x="497.0" y="604.0"/>
      <point x="422.0" y="654.0"/>
      <point x="314.0" y="654.0" type="curve" smooth="yes"/>
      <point x="280.0" y="654.0"/>
      <point x="251.0" y="650.0"/>
    </contour>
  </outline>
</glyph>
<glyph name="Q" format="1">
  <advance width="786"/>
  <unicode hex="0051"/>
  <outline>
    <contour>
      <point x="388.0" y="-19.0" type="line"/>
      <point x="377.0" y="-19.0" type="line" smooth="yes"/>
      <point x="162.0" y="-19.0"/>
      <point x="22.0" y="124.0"/>
      <point x="22.0" y="343.0" type="curve" smooth="yes"/>
      <point x="22.0" y="561.0"/>
      <point x="174.0" y="709.0"/>
      <point x="398.0" y="709.0" type="curve" smooth="yes"/>
      <point x="622.0" y="709.0"/>
      <point x="764.0" y="578.0"/>
      <point x="764.0" y="371.0" type="curve" smooth="yes"/>
      <point x="764.0" y="227.0"/>
      <point x="690.0" y="98.0"/>
      <point x="569.0" y="28.0" type="curve" smooth="yes"/>
      <point x="517.0" y="-1.0"/>
      <point x="480.0" y="-12.0"/>
      <point x="401.0" y="-19.0" type="curve"/>
      <point x="443.0" y="-24.0"/>
      <point x="460.0" y="-29.0"/>
      <point x="522.0" y="-56.0" type="curve" smooth="yes"/>
      <point x="602.0" y="-90.0"/>
      <point x="657.0" y="-105.0"/>
      <point x="705.0" y="-105.0" type="curve" smooth="yes"/>
      <point x="714.0" y="-105.0"/>
      <point x="725.0" y="-104.0"/>
      <point x="764.0" y="-99.0" type="curve"/>
      <point x="764.0" y="-120.0" type="line"/>
      <point x="680.0" y="-176.0" type="line"/>
      <point x="640.0" y="-168.0"/>
      <point x="609.0" y="-161.0"/>
      <point x="574.0" y="-150.0" type="curve" smooth="yes"/>
      <point x="426.0" y="-104.0" type="line" smooth="yes"/>
      <point x="395.0" y="-94.0"/>
      <point x="367.0" y="-89.0"/>
      <point x="348.0" y="-89.0" type="curve" smooth="yes"/>
      <point x="338.0" y="-89.0"/>
      <point x="332.0" y="-91.0"/>
      <point x="320.0" y="-97.0" type="curve" smooth="yes"/>
      <point x="261.0" y="-129.0" type="line"/>
      <point x="263.0" y="-97.0" type="line"/>
      <point x="319.0" y="-54.0"/>
      <point x="353.0" y="-31.0"/>
      <point x="372.0" y="-25.0" type="curve"/>
    </contour>
    <contour>
      <point x="385.0" y="667.0" type="curve" smooth="yes"/>
      <point x="220.0" y="667.0"/>
      <point x="122" y="563"/>
      <point x="104.0" y="375.0" type="curve" smooth="yes"/>
      <point x="93" y="263"/>
      <point x="141" y="189"/>
      <point x="191" y="126" type="curve" smooth="yes"/>
      <point x="241" y="64"/>
      <point x="327.0" y="23.0"/>
      <point x="412.0" y="23.0" type="curve" smooth="yes"/>
      <point x="569.0" y="23.0"/>
      <point x="679" y="144"/>
      <point x="679" y="344" type="curve" smooth="yes"/>
      <point x="679" y="554"/>
      <point x="557.0" y="667.0"/>
    </contour>
  </outline>
</glyph>
<glyph name="R" format="1">
  <advance width="668"/>
  <unicode hex="0052"/>
  <outline>
    <contour>
      <point x="216.0" y="642.0" type="curve"/>
      <point x="216.0" y="120.0" type="line" smooth="yes"/>
      <point x="216.0" y="41.0"/>
      <point x="221.0" y="33.0"/>
      <point x="267.0" y="30.0" type="curve" smooth="yes"/>
      <point x="315.0" y="27.0" type="line"/>
      <point x="315.0" y="-3.0" type="line"/>
      <point x="256.0" y="-1.0"/>
      <point x="221" y="8"/>
      <point x="169" y="8" type="curve" smooth="yes"/>
      <point x="117" y="8"/>
      <point x="81.0" y="-1.0"/>
      <point x="22.0" y="-3.0" type="curve"/>
      <point x="22.0" y="27.0" type="line"/>
      <point x="70.0" y="30.0" type="line" smooth="yes"/>
      <point x="116.0" y="33.0"/>
      <point x="121.0" y="41.0"/>
      <point x="121.0" y="120.0" type="curve" smooth="yes"/>
      <point x="121.0" y="569.0" type="line" smooth="yes"/>
      <point x="121.0" y="647.0"/>
      <point x="116.0" y="656.0"/>
      <point x="70.0" y="659.0" type="curve" smooth="yes"/>
      <point x="29.0" y="662.0" type="line"/>
      <point x="29.0" y="692.0" type="line"/>
      <point x="169.0" y="689.0"/>
      <point x="152" y="680"/>
      <point x="185" y="680" type="curve" smooth="yes"/>
      <point x="219" y="680"/>
      <point x="236.0" y="689.0"/>
      <point x="366.0" y="692.0" type="curve"/>
      <point x="382.0" y="692.0" type="line" smooth="yes"/>
      <point x="506.0" y="692.0"/>
      <point x="576.0" y="638.0"/>
      <point x="576.0" y="542.0" type="curve" smooth="yes"/>
      <point x="576.0" y="484.0"/>
      <point x="548.0" y="434.0"/>
      <point x="496.0" y="397.0" type="curve" smooth="yes"/>
      <point x="463.0" y="374.0"/>
      <point x="437.0" y="363.0"/>
      <point x="381.0" y="349.0" type="curve"/>
      <point x="608.0" y="53.0" type="line" smooth="yes"/>
      <point x="621.0" y="36.0"/>
      <point x="637.0" y="30.0"/>
      <point x="669.0" y="27.0" type="curve"/>
      <point x="669.0" y="-3.0" type="line"/>
      <point x="606.0" y="0.0"/>
      <point x="606" y="11"/>
      <point x="597" y="11" type="curve" smooth="yes"/>
      <point x="586" y="11"/>
      <point x="576.0" y="0.0"/>
      <point x="529.0" y="-3.0" type="curve"/>
      <point x="506.0" y="28.0" type="line" smooth="yes"/>
      <point x="500.0" y="35.0"/>
      <point x="494.0" y="43.0"/>
      <point x="488.0" y="51.0" type="curve" smooth="yes"/>
      <point x="304.0" y="298.0" type="line" smooth="yes"/>
      <point x="295.0" y="310.0"/>
      <point x="292.0" y="314.0"/>
      <point x="278.0" y="330.0" type="curve" smooth="yes"/>
      <point x="266.0" y="343.0"/>
      <point x="263.0" y="347.0"/>
      <point x="252.0" y="360.0" type="curve"/>
      <point x="258.0" y="372.0" type="line"/>
      <point x="271.0" y="371.0"/>
      <point x="280.0" y="371.0"/>
      <point x="287.0" y="371.0" type="curve" smooth="yes"/>
      <point x="403.0" y="371.0"/>
      <point x="476.0" y="429.0"/>
      <point x="476.0" y="521.0" type="curve" smooth="yes"/>
      <point x="476.0" y="606.0"/>
      <point x="418.0" y="654.0"/>
      <point x="314.0" y="654.0" type="curve" smooth="yes"/>
      <point x="280.0" y="654.0"/>
      <point x="250.0" y="650.0"/>
    </contour>
  </outline>
</glyph>
<glyph name="X" format="1">
  <advance width="667"/>
  <unicode hex="0058"/>
  <outline>
    <contour>
      <point x="648.0" y="27.0" type="line"/>
      <point x="648.0" y="-3.0" type="line"/>
      <point x="605.0" y="-1.0"/>
      <point x="587.0" y="16.0"/>
      <point x="557.0" y="11.0" type="curve" smooth="yes"/>
      <point x="532.0" y="7.0"/>
      <point x="553.0" y="16.0"/>
      <point x="505.0" y="-6.0" type="curve"/>
      <point x="319.0" y="303.0" type="line"/>
      <point x="294.0" y="268.0"/>
      <point x="284.0" y="254.0"/>
      <point x="274.0" y="239.0" type="curve" smooth="yes"/>
      <point x="117.0" y="-3.0" type="line"/>
      <point x="74.0" y="0.0"/>
      <point x="74" y="13"/>
      <point x="66" y="13" type="curve" smooth="yes"/>
      <point x="58" y="13"/>
      <point x="58.0" y="0.0"/>
      <point x="14.0" y="-3.0" type="curve"/>
      <point x="14.0" y="27.0" type="line"/>
      <point x="40.0" y="30.0" type="line" smooth="yes"/>
      <point x="62.0" y="33.0"/>
      <point x="74.0" y="44.0"/>
      <point x="99.0" y="78.0" type="curve" smooth="yes"/>
      <point x="101.0" y="81.0"/>
      <point x="102.0" y="81.0"/>
      <point x="105.0" y="86.0" type="curve" smooth="yes"/>
      <point x="294.0" y="341.0" type="line"/>
      <point x="166.0" y="554.0" type="line" smooth="yes"/>
      <point x="133.0" y="609.0"/>
      <point x="98.0" y="642.0"/>
      <point x="74.0" y="644.0" type="curve" smooth="yes"/>
      <point x="29.0" y="647.0" type="line"/>
      <point x="27.0" y="673.0" type="line"/>
      <point x="168.0" y="700.0" type="line"/>
      <point x="187.0" y="690.0"/>
      <point x="202.0" y="673.0"/>
      <point x="225.0" y="635.0" type="curve" smooth="yes"/>
      <point x="353.0" y="419.0" type="line"/>
      <point x="538.0" y="689.0" type="line"/>
      <point x="639.0" y="689.0" type="line"/>
      <point x="639.0" y="659.0" type="line"/>
      <point x="598.0" y="656.0" type="line" smooth="yes"/>
      <point x="583.0" y="654.0"/>
      <point x="571.0" y="642.0"/>
      <point x="530.0" y="588.0" type="curve" smooth="yes"/>
      <point x="376.0" y="380.0" type="line"/>
      <point x="552.0" y="100.0" type="line" smooth="yes"/>
      <point x="587.0" y="46.0"/>
      <point x="599.0" y="33.0"/>
      <point x="618.0" y="30.0" type="curve"/>
    </contour>
  </outline>
</glyph>
<glyph name="d" format="1">
  <advance width="611"/>
  <unicode hex="0064"/>
  <outline>
    <contour>
      <point x="412.0" y="437.0" type="curve"/>
      <point x="412.0" y="620.0" type="line" smooth="yes"/>
      <point x="412.0" y="650.0"/>
      <point x="405.0" y="661.0"/>
      <point x="387.0" y="661.0" type="curve" smooth="yes"/>
      <point x="331.0" y="661.0" type="line"/>
      <point x="331.0" y="689.0" type="line"/>
      <point x="410.0" y="701.0"/>
      <point x="443.0" y="709.0"/>
      <point x="487.0" y="726.0" type="curve"/>
      <point x="496.0" y="718.0" type="line"/>
      <point x="496.0" y="102.0" type="line" smooth="yes"/>
      <point x="496.0" y="39.0"/>
      <point x="499.0" y="32.0"/>
      <point x="533.0" y="30.0" type="curve" smooth="yes"/>
      <point x="579.0" y="27.0" type="line"/>
      <point x="579.0" y="-3.0" type="line"/>
      <point x="558.0" y="-2.0"/>
      <point x="538.0" y="-2.0"/>
      <point x="531.0" y="-1.0" type="curve" smooth="yes"/>
      <point x="510.0" y="0.0"/>
      <point x="496.0" y="10.0"/>
      <point x="488.0" y="10.0" type="curve" smooth="yes"/>
      <point x="476.0" y="10.0"/>
      <point x="460.0" y="-1.0"/>
      <point x="411.0" y="-3.0" type="curve"/>
      <point x="416.0" y="89.0" type="line"/>
      <point x="305.0" y="-4.0" type="line" smooth="yes"/>
      <point x="300.0" y="-8.0"/>
      <point x="277.0" y="-12.0"/>
      <point x="257.0" y="-12.0" type="curve" smooth="yes"/>
      <point x="192.0" y="-12.0"/>
      <point x="145.0" y="1.0"/>
      <point x="111.0" y="30.0" type="curve" smooth="yes"/>
      <point x="62.0" y="70.0"/>
      <point x="35.0" y="136.0"/>
      <point x="35.0" y="216.0" type="curve" smooth="yes"/>
      <point x="35.0" y="301.0"/>
      <point x="72.0" y="374.0"/>
      <point x="129.0" y="404.0" type="curve" smooth="yes"/>
      <point x="217.0" y="450.0" type="line" smooth="yes"/>
      <point x="242.0" y="463.0"/>
      <point x="266.0" y="469.0"/>
      <point x="293.0" y="469.0" type="curve" smooth="yes"/>
      <point x="328.0" y="469.0"/>
      <point x="356.0" y="461.0"/>
    </contour>
    <contour>
      <point x="412.0" y="221.0" type="curve" smooth="yes"/>
      <point x="412.0" y="350.0" type="line" smooth="yes"/>
      <point x="412.0" y="358.0"/>
      <point x="400.0" y="371.0"/>
      <point x="379.0" y="385.0" type="curve" smooth="yes"/>
      <point x="344.0" y="409.0"/>
      <point x="304.0" y="422.0"/>
      <point x="266.0" y="422.0" type="curve" smooth="yes"/>
      <point x="176.0" y="422.0"/>
      <point x="112.0" y="358.0"/>
      <point x="112.0" y="249.0" type="curve" smooth="yes"/>
      <point x="112.0" y="130.0"/>
      <point x="185.0" y="45.0"/>
      <point x="273.0" y="45.0" type="curve" smooth="yes"/>
      <point x="320.0" y="45.0"/>
      <point x="369.0" y="76.0"/>
      <point x="397.0" y="123.0" type="curve" smooth="yes"/>
      <point x="410.0" y="146.0"/>
      <point x="412.0" y="156.0"/>
    </contour>
  </outline>
</glyph>
<glyph name="e" format="1">
  <advance width="479"/>
  <unicode hex="0065"/>
  <outline>
    <contour>
      <point x="437.0" y="70.0" type="line"/>
      <point x="417.0" y="36.0" type="line" smooth="yes"/>
      <point x="413.0" y="30.0"/>
      <point x="392.0" y="17.0"/>
      <point x="365.0" y="6.0" type="curve" smooth="yes"/>
      <point x="324.0" y="-12.0"/>
      <point x="287.0" y="-20.0"/>
      <point x="250.0" y="-20.0" type="curve" smooth="yes"/>
      <point x="175.0" y="-20.0"/>
      <point x="115" y="11"/>
      <point x="75" y="64" type="curve"/>
      <point x="48" y="102"/>
      <point x="33" y="156"/>
      <point x="33" y="219" type="curve" smooth="yes"/>
      <point x="33" y="323"/>
      <point x="59.0" y="385.0"/>
      <point x="141.0" y="432.0" type="curve" smooth="yes"/>
      <point x="182.0" y="456.0"/>
      <point x="225.0" y="469.0"/>
      <point x="262.0" y="469.0" type="curve" smooth="yes"/>
      <point x="374.0" y="469.0"/>
      <point x="448.0" y="394.0"/>
      <point x="448.0" y="279.0" type="curve" smooth="yes"/>
      <point x="448.0" y="267.0"/>
      <point x="447.0" y="258.0"/>
      <point x="446.0" y="244.0" type="curve"/>
      <point x="377.0" y="233.0"/>
      <point x="334.0" y="230.0"/>
      <point x="265.0" y="230.0" type="curve" smooth="yes"/>
      <point x="119.0" y="230.0" type="line"/>
      <point x="121.0" y="172.0"/>
      <point x="128.0" y="144.0"/>
      <point x="147.0" y="111.0" type="curve" smooth="yes"/>
      <point x="175.0" y="62.0"/>
      <point x="229.0" y="33.0"/>
      <point x="294.0" y="33.0" type="curve" smooth="yes"/>
      <point x="337.0" y="33.0"/>
      <point x="360.0" y="42.0"/>
      <point x="424.0" y="80.0" type="curve"/>
    </contour>
    <contour>
      <point x="359.0" y="267.0" type="curve"/>
      <point x="356.0" y="334.0"/>
      <point x="349.0" y="363.0"/>
      <point x="327.0" y="396.0" type="curve" smooth="yes"/>
      <point x="309.0" y="423.0"/>
      <point x="283.0" y="436.0"/>
      <point x="250.0" y="436.0" type="curve" smooth="yes"/>
      <point x="202.0" y="436.0"/>
      <point x="159.0" y="409.0"/>
      <point x="138.0" y="365.0" type="curve" smooth="yes"/>
      <point x="125.0" y="339.0"/>
      <point x="121.0" y="317.0"/>
      <point x="121.0" y="270.0" type="curve"/>
      <point x="175.0" y="265.0"/>
      <point x="201.0" y="264.0"/>
      <point x="247.0" y="264.0" type="curve" smooth="yes"/>
      <point x="283.0" y="264.0"/>
      <point x="307.0" y="265.0"/>
    </contour>
  </outline>
</glyph>
<glyph name="f" format="1">
  <advance width="333"/>
  <unicode hex="0066"/>
  <outline>
    <contour>
      <point x="341.0" y="717.0" type="curve"/>
      <point x="341.0" y="640.0" type="line"/>
      <point x="329.0" y="634.0" type="line"/>
      <point x="305.0" y="655.0"/>
      <point x="287.0" y="662.0"/>
      <point x="260.0" y="662.0" type="curve" smooth="yes"/>
      <point x="203.0" y="662.0"/>
      <point x="190.0" y="634.0"/>
      <point x="190.0" y="519.0" type="curve" smooth="yes"/>
      <point x="190.0" y="434.0" type="line"/>
      <point x="321.0" y="438.0" type="line"/>
      <point x="314.0" y="385.0" type="line"/>
      <point x="190.0" y="385.0" type="line"/>
      <point x="190.0" y="102.0" type="line" smooth="yes"/>
      <point x="190.0" y="39.0"/>
      <point x="193.0" y="32.0"/>
      <point x="227.0" y="30.0" type="curve" smooth="yes"/>
      <point x="273.0" y="27.0" type="line"/>
      <point x="273.0" y="-3.0" type="line"/>
      <point x="173.0" y="0.0"/>
      <point x="173" y="10"/>
      <point x="148" y="10" type="curve" smooth="yes"/>
      <point x="123" y="10"/>
      <point x="123.0" y="0.0"/>
      <point x="23.0" y="-3.0" type="curve"/>
      <point x="23.0" y="27.0" type="line"/>
      <point x="69.0" y="30.0" type="line" smooth="yes"/>
      <point x="103.0" y="32.0"/>
      <point x="106.0" y="39.0"/>
      <point x="106.0" y="102.0" type="curve" smooth="yes"/>
      <point x="106.0" y="385.0" type="line"/>
      <point x="37.0" y="381.0" type="line"/>
      <point x="37.0" y="403.0" type="line"/>
      <point x="106.0" y="434.0" type="line"/>
      <point x="106.0" y="476.0" type="line" smooth="yes"/>
      <point x="106.0" y="542.0"/>
      <point x="119.0" y="587.0"/>
      <point x="148.0" y="620.0" type="curve" smooth="yes"/>
      <point x="206.0" y="686.0" type="line" smooth="yes"/>
      <point x="228.0" y="711.0"/>
      <point x="263.0" y="728.0"/>
      <point x="295.0" y="728.0" type="curve" smooth="yes"/>
      <point x="308.0" y="728.0"/>
      <point x="320.0" y="725.0"/>
    </contour>
  </outline>
</glyph>
<glyph name="i" format="1">
  <advance width="291"/>
  <unicode hex="0069"/>
  <outline>
    <contour>
      <point x="188.0" y="465.0" type="line"/>
      <point x="188.0" y="102.0" type="line" smooth="yes"/>
      <point x="188.0" y="39.0"/>
      <point x="191.0" y="32.0"/>
      <point x="225.0" y="30.0" type="curve" smooth="yes"/>
      <point x="271.0" y="27.0" type="line"/>
      <point x="271.0" y="-3.0" type="line"/>
      <point x="171.0" y="0.0"/>
      <point x="171" y="9"/>
      <point x="146" y="9" type="curve" smooth="yes"/>
      <point x="121" y="9"/>
      <point x="121.0" y="0.0"/>
      <point x="21.0" y="-3.0" type="curve"/>
      <point x="21.0" y="27.0" type="line"/>
      <point x="67.0" y="30.0" type="line" smooth="yes"/>
      <point x="101.0" y="32.0"/>
      <point x="104.0" y="39.0"/>
      <point x="104.0" y="102.0" type="curve" smooth="yes"/>
      <point x="104.0" y="327.0" type="line" smooth="yes"/>
      <point x="104.0" y="393.0"/>
      <point x="100.0" y="400.0"/>
      <point x="60.0" y="400.0" type="curve" smooth="yes"/>
      <point x="23.0" y="400.0" type="line"/>
      <point x="23.0" y="428.0" type="line"/>
      <point x="76.0" y="434.0"/>
      <point x="128.0" y="448.0"/>
      <point x="179.0" y="469.0" type="curve"/>
    </contour>
    <contour>
      <point x="142.0" y="687.0" type="curve" smooth="yes"/>
      <point x="170.0" y="687.0"/>
      <point x="197.0" y="659.0"/>
      <point x="197.0" y="631.0" type="curve" smooth="yes"/>
      <point x="197.0" y="602.0"/>
      <point x="170" y="599"/>
      <point x="141" y="599" type="curve" smooth="yes"/>
      <point x="112" y="599"/>
      <point x="86.0" y="602.0"/>
      <point x="86.0" y="631.0" type="curve" smooth="yes"/>
      <point x="86.0" y="661.0"/>
      <point x="112.0" y="687.0"/>
    </contour>
  </outline>
</glyph>
<glyph name="k" format="1">
  <advance width="556"/>
  <unicode hex="006B"/>
  <outline>
    <contour>
      <point x="23.0" y="661.0" type="line"/>
      <point x="23.0" y="689.0" type="line"/>
      <point x="102.0" y="701.0"/>
      <point x="135.0" y="709.0"/>
      <point x="179.0" y="726.0" type="curve"/>
      <point x="188.0" y="718.0" type="line"/>
      <point x="188.0" y="261.0" type="line"/>
      <point x="261.0" y="320.0" type="line" smooth="yes"/>
      <point x="300.0" y="351.0"/>
      <point x="347.0" y="395.0"/>
      <point x="411.0" y="459.0" type="curve"/>
      <point x="511.0" y="459.0" type="line"/>
      <point x="511.0" y="429.0" type="line"/>
      <point x="477.0" y="430.0"/>
      <point x="450.0" y="418.0"/>
      <point x="403.0" y="382.0" type="curve" smooth="yes"/>
      <point x="274.0" y="281.0" type="line"/>
      <point x="291.0" y="261.0"/>
      <point x="302.0" y="248.0"/>
      <point x="338.0" y="213.0" type="curve" smooth="yes"/>
      <point x="464.0" y="88.0" type="line" smooth="yes"/>
      <point x="496.0" y="57.0"/>
      <point x="525.0" y="40.0"/>
      <point x="549.0" y="40.0" type="curve"/>
      <point x="549.0" y="17.0" type="line"/>
      <point x="453.0" y="-12.0" type="line"/>
      <point x="188.0" y="240.0" type="line"/>
      <point x="188.0" y="102.0" type="line" smooth="yes"/>
      <point x="188.0" y="39.0"/>
      <point x="191.0" y="32.0"/>
      <point x="225.0" y="30.0" type="curve" smooth="yes"/>
      <point x="269.0" y="27.0" type="line"/>
      <point x="269.0" y="-3.0" type="line"/>
      <point x="180.0" y="0.0"/>
      <point x="175.0" y="8.0"/>
      <point x="147.0" y="8.0" type="curve" smooth="yes"/>
      <point x="121.0" y="8.0"/>
      <point x="121.0" y="0.0"/>
      <point x="21.0" y="-3.0" type="curve"/>
      <point x="21.0" y="27.0" type="line"/>
      <point x="67.0" y="30.0" type="line" smooth="yes"/>
      <point x="101.0" y="32.0"/>
      <point x="104.0" y="39.0"/>
      <point x="104.0" y="102.0" type="curve" smooth="yes"/>
      <point x="104.0" y="620.0" type="line" smooth="yes"/>
      <point x="104.0" y="650.0"/>
      <point x="97.0" y="661.0"/>
      <point x="79.0" y="661.0" type="curve" smooth="yes"/>
    </contour>
  </outline>
</glyph>
<glyph name="r" format="1">
  <advance width="395"/>
  <unicode hex="0072"/>
  <outline>
    <contour>
      <point x="23.0" y="400.0" type="line"/>
      <point x="23.0" y="428.0" type="line"/>
      <point x="76.0" y="434.0"/>
      <point x="117.0" y="434.0"/>
      <point x="179.0" y="469.0" type="curve"/>
      <point x="188.0" y="465.0" type="line"/>
      <point x="188.0" y="362.0" type="line"/>
      <point x="244.0" y="428.0" type="line" smooth="yes"/>
      <point x="265.0" y="453.0"/>
      <point x="297.0" y="469.0"/>
      <point x="327.0" y="469.0" type="curve" smooth="yes"/>
      <point x="345.0" y="469.0"/>
      <point x="363.0" y="465.0"/>
      <point x="374.0" y="458.0" type="curve"/>
      <point x="365.0" y="338.0" type="line"/>
      <point x="344.0" y="338.0" type="line"/>
      <point x="328.0" y="370.0"/>
      <point x="307.0" y="384.0"/>
      <point x="277.0" y="384.0" type="curve" smooth="yes"/>
      <point x="228.0" y="384.0"/>
      <point x="188.0" y="334.0"/>
      <point x="188.0" y="274.0" type="curve" smooth="yes"/>
      <point x="188.0" y="102.0" type="line" smooth="yes"/>
      <point x="188.0" y="36.0"/>
      <point x="190.0" y="33.0"/>
      <point x="235.0" y="30.0" type="curve" smooth="yes"/>
      <point x="287.0" y="27.0" type="line"/>
      <point x="287.0" y="-3.0" type="line"/>
      <point x="164.0" y="0.0"/>
      <point x="164" y="7"/>
      <point x="144" y="7" type="curve" smooth="yes"/>
      <point x="119" y="7"/>
      <point x="93.0" y="-1.0"/>
      <point x="21.0" y="-3.0" type="curve"/>
      <point x="21.0" y="27.0" type="line"/>
      <point x="67.0" y="30.0" type="line" smooth="yes"/>
      <point x="101.0" y="32.0"/>
      <point x="104.0" y="39.0"/>
      <point x="104.0" y="102.0" type="curve" smooth="yes"/>
      <point x="104.0" y="327.0" type="line" smooth="yes"/>
      <point x="104.0" y="393.0"/>
      <point x="100.0" y="400.0"/>
      <point x="60.0" y="400.0" type="curve" smooth="yes"/>
    </contour>
  </outline>
</glyph>
<glyph name="s" format="1">
  <advance width="424"/>
  <unicode hex="0073"/>
  <outline>
    <contour>
      <point x="41.0" y="143.0" type="curve"/>
      <point x="71.0" y="143.0" type="line"/>
      <point x="71.0" y="102.0" type="line" smooth="yes"/>
      <point x="71.0" y="52.0"/>
      <point x="123.0" y="17.0"/>
      <point x="196.0" y="17.0" type="curve" smooth="yes"/>
      <point x="267.0" y="17.0"/>
      <point x="324.0" y="55.0"/>
      <point x="324.0" y="109.0" type="curve" smooth="yes"/>
      <point x="324.0" y="147.0"/>
      <point x="298.0" y="168.0"/>
      <point x="253.0" y="178.0" type="curve" smooth="yes"/>
      <point x="185.0" y="193.0"/>
      <point x="132.0" y="209.0"/>
      <point x="105.0" y="221.0" type="curve" smooth="yes"/>
      <point x="59.0" y="242.0"/>
      <point x="37.0" y="276.0"/>
      <point x="37.0" y="324.0" type="curve" smooth="yes"/>
      <point x="37.0" y="414.0"/>
      <point x="108.0" y="469.0"/>
      <point x="224.0" y="469.0" type="curve" smooth="yes"/>
      <point x="265.0" y="469.0"/>
      <point x="301.0" y="462.0"/>
      <point x="354.0" y="444.0" type="curve"/>
      <point x="351.0" y="413.0"/>
      <point x="337" y="390"/>
      <point x="349.0" y="331.0" type="curve"/>
      <point x="321.0" y="331.0" type="line"/>
      <point x="321.0" y="354.0" type="line" smooth="yes"/>
      <point x="321.0" y="401.0"/>
      <point x="270.0" y="436.0"/>
      <point x="203.0" y="436.0" type="curve" smooth="yes"/>
      <point x="142.0" y="436.0"/>
      <point x="98.0" y="408.0"/>
      <point x="98.0" y="358.0" type="curve" smooth="yes"/>
      <point x="98.0" y="312.0"/>
      <point x="134.0" y="292.0"/>
      <point x="216.0" y="276.0" type="curve" smooth="yes"/>
      <point x="304.0" y="259.0"/>
      <point x="337.0" y="247.0"/>
      <point x="363.0" y="222.0" type="curve"/>
      <point x="382.0" y="202.0"/>
      <point x="391.0" y="179.0"/>
      <point x="391.0" y="148.0" type="curve" smooth="yes"/>
      <point x="391.0" y="50.0"/>
      <point x="298.0" y="-20.0"/>
      <point x="167.0" y="-20.0" type="curve" smooth="yes"/>
      <point x="121.0" y="-20.0"/>
      <point x="82.0" y="-13.0"/>
      <point x="30.0" y="4.0" type="curve"/>
      <point x="54" y="44"/>
      <point x="41.0" y="74.0"/>
    </contour>
  </outline>
</glyph>
<glyph name="t" format="1">
  <advance width="326"/>
  <unicode hex="0074"/>
  <outline>
    <contour>
      <point x="98.0" y="382.0" type="line"/>
      <point x="22.0" y="378.0" type="line"/>
      <point x="22.0" y="399.0" type="line"/>
      <point x="100.0" y="434.0" type="line"/>
      <point x="100.0" y="504.0" type="line" smooth="yes"/>
      <point x="100.0" y="534.0"/>
      <point x="99.0" y="553.0"/>
      <point x="96.0" y="583.0" type="curve"/>
      <point x="153" y="579"/>
      <point x="157.0" y="606.0"/>
      <point x="181.0" y="621.0" type="curve"/>
      <point x="193.0" y="610.0" type="line"/>
      <point x="185.0" y="546.0"/>
      <point x="182.0" y="510.0"/>
      <point x="182.0" y="468.0" type="curve" smooth="yes"/>
      <point x="182.0" y="430.0" type="line"/>
      <point x="319.0" y="436.0" type="line"/>
      <point x="310.0" y="382.0" type="line"/>
      <point x="182.0" y="382.0" type="line"/>
      <point x="182.0" y="120.0" type="line" smooth="yes"/>
      <point x="182.0" y="71.0"/>
      <point x="188.0" y="41.0"/>
      <point x="227.0" y="41.0" type="curve" smooth="yes"/>
      <point x="246.0" y="41.0"/>
      <point x="271.0" y="56.0"/>
      <point x="296.0" y="70.0" type="curve"/>
      <point x="309.0" y="53.0" type="line"/>
      <point x="261.0" y="0.0" type="line" smooth="yes"/>
      <point x="255.0" y="-7.0"/>
      <point x="231.0" y="-12.0"/>
      <point x="208.0" y="-12.0" type="curve" smooth="yes"/>
      <point x="131.0" y="-12.0"/>
      <point x="98.0" y="20.0"/>
      <point x="98.0" y="94.0" type="curve" smooth="yes"/>
    </contour>
  </outline>
</glyph>
<glyph name="u" format="1">
  <advance width="603"/>
  <unicode hex="0075"/>
  <outline>
    <contour>
      <point x="503.0" y="465.0" type="line"/>
      <point x="503.0" y="102.0" type="line" smooth="yes"/>
      <point x="503.0" y="38.0"/>
      <point x="506.0" y="32.0"/>
      <point x="540.0" y="30.0" type="curve" smooth="yes"/>
      <point x="581.0" y="27.0" type="line"/>
      <point x="581.0" y="-3.0" type="line"/>
      <point x="512.0" y="0.0"/>
      <point x="512" y="9"/>
      <point x="498" y="9" type="curve" smooth="yes"/>
      <point x="483" y="9"/>
      <point x="482.0" y="0.0"/>
      <point x="415.0" y="-3.0" type="curve"/>
      <point x="418.0" y="44.0"/>
      <point x="419.0" y="60.0"/>
      <point x="419.0" y="89.0" type="curve"/>
      <point x="352.0" y="27.0" type="line" smooth="yes"/>
      <point x="325.0" y="2.0"/>
      <point x="285.0" y="-12.0"/>
      <point x="240.0" y="-12.0" type="curve" smooth="yes"/>
      <point x="183.0" y="-12.0"/>
      <point x="145.0" y="3.0"/>
      <point x="123.0" y="33.0" type="curve" smooth="yes"/>
      <point x="105.0" y="58.0"/>
      <point x="99.0" y="89.0"/>
      <point x="99.0" y="159.0" type="curve" smooth="yes"/>
      <point x="99.0" y="327.0" type="line" smooth="yes"/>
      <point x="99.0" y="393.0"/>
      <point x="95.0" y="400.0"/>
      <point x="55.0" y="400.0" type="curve" smooth="yes"/>
      <point x="18.0" y="400.0" type="line"/>
      <point x="18.0" y="428.0" type="line"/>
      <point x="121" y="421"/>
      <point x="123.0" y="448.0"/>
      <point x="174.0" y="469.0" type="curve"/>
      <point x="183.0" y="465.0" type="line"/>
      <point x="183.0" y="170.0" type="line" smooth="yes"/>
      <point x="183.0" y="126.0"/>
      <point x="190.0" y="95.0"/>
      <point x="204.0" y="79.0" type="curve" smooth="yes"/>
      <point x="220.0" y="60.0"/>
      <point x="248.0" y="49.0"/>
      <point x="283.0" y="49.0" type="curve" smooth="yes"/>
      <point x="322.0" y="49.0"/>
      <point x="354.0" y="63.0"/>
      <point x="382.0" y="91.0" type="curve" smooth="yes"/>
      <point x="405.0" y="114.0"/>
      <point x="419.0" y="142.0"/>
      <point x="419.0" y="164.0" type="curve" smooth="yes"/>
      <point x="419.0" y="327.0" type="line" smooth="yes"/>
      <point x="419.0" y="393.0"/>
      <point x="415.0" y="400.0"/>
      <point x="375.0" y="400.0" type="curve" smooth="yes"/>
      <point x="338.0" y="400.0" type="line"/>
      <point x="338.0" y="428.0" type="line"/>
      <point x="435" y="428"/>
      <point x="443.0" y="448.0"/>
      <point x="494.0" y="469.0" type="curve"/>
    </contour>
  </outline>
</glyph>
<glyph name="v" format="1">
  <advance width="565"/>
  <unicode hex="0076"/>
  <outline>
    <contour>
      <point x="539.0" y="431.0" type="line"/>
      <point x="508.0" y="429.0" type="line" smooth="yes"/>
      <point x="488.0" y="427.0"/>
      <point x="474.0" y="409.0"/>
      <point x="452.0" y="362.0" type="curve" smooth="yes"/>
      <point x="334.0" y="102.0" type="line" smooth="yes"/>
      <point x="333.0" y="102.0"/>
      <point x="320.0" y="68.0"/>
      <point x="309.0" y="38.0" type="curve" smooth="yes"/>
      <point x="309.0" y="36.0"/>
      <point x="299.0" y="10.0"/>
      <point x="293.0" y="-7.0" type="curve"/>
      <point x="243.0" y="-7.0" type="line"/>
      <point x="71.0" y="396.0" type="line" smooth="yes"/>
      <point x="60.0" y="421.0"/>
      <point x="55.0" y="427.0"/>
      <point x="40.0" y="429.0" type="curve"/>
      <point x="6.0" y="431.0" type="line"/>
      <point x="6.0" y="459.0" type="line"/>
      <point x="55.0" y="457.0"/>
      <point x="103.0" y="448.0"/>
      <point x="122.0" y="448.0" type="curve" smooth="yes"/>
      <point x="141.0" y="448.0"/>
      <point x="141.0" y="456.0"/>
      <point x="239.0" y="459.0" type="curve"/>
      <point x="239.0" y="431.0" type="line"/>
      <point x="190.0" y="429.0" type="line" smooth="yes"/>
      <point x="174.0" y="428.0"/>
      <point x="165.0" y="421.0"/>
      <point x="165.0" y="410.0" type="curve" smooth="yes"/>
      <point x="165.0" y="399.0"/>
      <point x="168.0" y="386.0"/>
      <point x="174.0" y="372.0" type="curve" smooth="yes"/>
      <point x="293.0" y="84.0" type="line"/>
      <point x="331.0" y="167.0"/>
      <point x="343.0" y="195.0"/>
      <point x="355.0" y="224.0" type="curve" smooth="yes"/>
      <point x="397.0" y="330.0" type="line" smooth="yes"/>
      <point x="409.0" y="360.0"/>
      <point x="416.0" y="387.0"/>
      <point x="416.0" y="403.0" type="curve" smooth="yes"/>
      <point x="416.0" y="419.0"/>
      <point x="408.0" y="428.0"/>
      <point x="392.0" y="429.0" type="curve" smooth="yes"/>
      <point x="351.0" y="431.0" type="line"/>
      <point x="351.0" y="459.0" type="line"/>
      <point x="411.0" y="457.0"/>
      <point x="429" y="448"/>
      <point x="445" y="448" type="curve" smooth="yes"/>
      <point x="461" y="448"/>
      <point x="479.0" y="457.0"/>
      <point x="539.0" y="459.0" type="curve"/>
    </contour>
  </outline>
</glyph>
<glyph name="x" format="1">
  <advance width="516"/>
  <unicode hex="0078"/>
  <outline>
    <contour>
      <point x="288.0" y="254.0" type="line"/>
      <point x="436.0" y="54.0" type="line" smooth="yes"/>
      <point x="447.0" y="39.0"/>
      <point x="459.0" y="31.0"/>
      <point x="471.0" y="30.0" type="curve" smooth="yes"/>
      <point x="496.0" y="27.0" type="line"/>
      <point x="496.0" y="-3.0" type="line"/>
      <point x="444.0" y="0.0"/>
      <point x="444.0" y="7.0"/>
      <point x="434.0" y="7.0" type="curve" smooth="yes"/>
      <point x="425.0" y="7.0"/>
      <point x="425.0" y="0.0"/>
      <point x="373.0" y="-3.0" type="curve"/>
      <point x="365.0" y="4.0"/>
      <point x="357.0" y="14.0"/>
      <point x="348.0" y="28.0" type="curve"/>
      <point x="347.0" y="30.0" type="line"/>
      <point x="240.0" y="192.0" type="line"/>
      <point x="166.0" y="94.0" type="line" smooth="yes"/>
      <point x="159.0" y="86.0"/>
      <point x="143.0" y="61.0"/>
      <point x="127.0" y="33.0" type="curve"/>
      <point x="96.0" y="10.0" type="line"/>
      <point x="20.0" y="0.0" type="line"/>
      <point x="20.0" y="27.0" type="line"/>
      <point x="37.0" y="27.0" type="line" smooth="yes"/>
      <point x="47.0" y="27.0"/>
      <point x="60.0" y="33.0"/>
      <point x="67.0" y="42.0" type="curve" smooth="yes"/>
      <point x="216.0" y="218.0" type="line"/>
      <point x="96.0" y="392.0" type="line" smooth="yes"/>
      <point x="86.0" y="406.0"/>
      <point x="64.0" y="420.0"/>
      <point x="46.0" y="421.0" type="curve" smooth="yes"/>
      <point x="25.0" y="423.0" type="line"/>
      <point x="20.0" y="449.0" type="line"/>
      <point x="136.0" y="469.0" type="line"/>
      <point x="170.0" y="435.0"/>
      <point x="181.0" y="422.0"/>
      <point x="196.0" y="400.0" type="curve" smooth="yes"/>
      <point x="272.0" y="284.0" type="line"/>
      <point x="404" y="451" type="line"/>
      <point x="478.0" y="459.0" type="line"/>
      <point x="478.0" y="431.0" type="line"/>
      <point x="464.0" y="431.0" type="line" smooth="yes"/>
      <point x="447.0" y="431.0"/>
      <point x="436.0" y="427.0"/>
      <point x="430.0" y="420.0" type="curve" smooth="yes"/>
    </contour>
  </outline>
</glyph>
<glyph name="z" format="1">
  <advance width="500"/>
  <unicode hex="007A"/>
  <outline>
    <contour>
      <point x="455.0" y="432.0" type="line"/>
      <point x="141.0" y="35.0" type="line"/>
      <point x="276.0" y="35.0" type="line" smooth="yes"/>
      <point x="372.0" y="35.0"/>
      <point x="414.0" y="42.0"/>
      <point x="418.0" y="60.0" type="curve" smooth="yes"/>
      <point x="436.0" y="139.0" type="line"/>
      <point x="466.0" y="139.0" type="line"/>
      <point x="453" y="91" type="line" smooth="yes"/>
      <point x="440" y="43"/>
      <point x="451.0" y="20.0"/>
      <point x="451.0" y="-3.0" type="curve"/>
      <point x="175.0" y="0.0" type="line" smooth="yes"/>
      <point x="132.0" y="0.0"/>
      <point x="126.0" y="0.0"/>
      <point x="22.0" y="-3.0" type="curve"/>
      <point x="16.0" y="17.0" type="line"/>
      <point x="106.0" y="122.0" type="line"/>
      <point x="276.0" y="334.0" type="line" smooth="yes"/>
      <point x="303.0" y="368.0"/>
      <point x="320.0" y="391.0"/>
      <point x="341.0" y="424.0" type="curve"/>
      <point x="198.0" y="424.0" type="line" smooth="yes"/>
      <point x="124.0" y="424.0"/>
      <point x="106.0" y="419.0"/>
      <point x="102.0" y="398.0" type="curve" smooth="yes"/>
      <point x="90.0" y="330.0" type="line"/>
      <point x="60.0" y="330.0" type="line"/>
      <point x="81.0" y="399.0"/>
      <point x="67.0" y="411.0"/>
      <point x="69.0" y="462.0" type="curve"/>
      <point x="317.0" y="459.0" type="line" smooth="yes"/>
      <point x="355.0" y="459.0"/>
      <point x="385.0" y="460.0"/>
      <point x="455.0" y="462.0" type="curve"/>
    </contour>
  </outline>
</glyph>
<glyph name="Agrave" format="1">
  <advance width="778"/>
  <unicode hex="00C0"/>
  <outline>
    <contour>
      <point x="408.0" y="700.0" type="line"/>
      <point x="650.0" y="132.0" type="line" smooth="yes"/>
      <point x="685.0" y="51.0"/>
      <point x="696.0" y="34.0"/>
      <point x="722.0" y="30.0" type="curve"/>
      <point x="756.0" y="27.0" type="line"/>
      <point x="756.0" y="-3.0" type="line"/>
      <point x="648.0" y="0.0"/>
      <point x="657.0" y="23.0"/>
      <point x="638.0" y="23.0" type="curve" smooth="yes"/>
      <point x="622.0" y="23.0"/>
      <point x="613.0" y="0.0"/>
      <point x="490.0" y="-3.0" type="curve"/>
      <point x="490.0" y="27.0" type="line"/>
      <point x="537.0" y="30.0" type="line" smooth="yes"/>
      <point x="562.0" y="32.0"/>
      <point x="578.0" y="39.0"/>
      <point x="578.0" y="50.0" type="curve" smooth="yes"/>
      <point x="578.0" y="59.0"/>
      <point x="574.0" y="72.0"/>
      <point x="557.0" y="114.0" type="curve" smooth="yes"/>
      <point x="511.0" y="229.0" type="line"/>
      <point x="223.0" y="229.0" type="line"/>
      <point x="195.0" y="162.0" type="line" smooth="yes"/>
      <point x="174.0" y="112.0"/>
      <point x="160.0" y="69.0"/>
      <point x="160.0" y="56.0" type="curve" smooth="yes"/>
      <point x="160.0" y="40.0"/>
      <point x="173.0" y="33.0"/>
      <point x="208.0" y="30.0" type="curve" smooth="yes"/>
      <point x="245.0" y="27.0" type="line"/>
      <point x="245.0" y="-3.0" type="line"/>
      <point x="137.0" y="0.0"/>
      <point x="155.0" y="21.0"/>
      <point x="142.0" y="21.0" type="curve" smooth="yes"/>
      <point x="126.0" y="21.0"/>
      <point x="108.0" y="0.0"/>
      <point x="15.0" y="-3.0" type="curve"/>
      <point x="15.0" y="27.0" type="line"/>
      <point x="52.0" y="30.0" type="line" smooth="yes"/>
      <point x="74.0" y="32.0"/>
      <point x="94.0" y="50.0"/>
      <point x="106.0" y="79.0" type="curve" smooth="yes"/>
      <point x="284.0" y="484.0" type="line"/>
      <point x="337.0" y="605.0" type="line"/>
      <point x="376.0" y="700.0" type="line"/>
    </contour>
    <contour>
      <point x="240.0" y="269.0" type="line"/>
      <point x="493.0" y="269.0" type="line"/>
      <point x="367.0" y="567.0" type="line"/>
    </contour>
    <contour>
      <point x="430.0" y="737.0" type="line"/>
      <point x="320" y="825" type="line" smooth="yes"/>
      <point x="289" y="850"/>
      <point x="246.0" y="856.0"/>
      <point x="246.0" y="874.0" type="curve" smooth="yes"/>
      <point x="246.0" y="893.0"/>
      <point x="260.0" y="908.0"/>
      <point x="277.0" y="908.0" type="curve" smooth="yes"/>
      <point x="291.0" y="908.0"/>
      <point x="311.0" y="896.0"/>
      <point x="332.0" y="875.0" type="curve" smooth="yes"/>
      <point x="470.0" y="737.0" type="line"/>
    </contour>
  </outline>
</glyph>
<glyph name="Aring" format="1">
  <advance width="778"/>
  <unicode hex="00C5"/>
  <outline>
    <contour>
      <point x="408.0" y="700.0" type="line"/>
      <point x="650.0" y="132.0" type="line" smooth="yes"/>
      <point x="685.0" y="51.0"/>
      <point x="696.0" y="34.0"/>
      <point x="722.0" y="30.0" type="curve"/>
      <point x="756.0" y="27.0" type="line"/>
      <point x="756.0" y="-3.0" type="line"/>
      <point x="648.0" y="0.0"/>
      <point x="650" y="19"/>
      <point x="631" y="19" type="curve" smooth="yes"/>
      <point x="615" y="19"/>
      <point x="613.0" y="0.0"/>
      <point x="490.0" y="-3.0" type="curve"/>
      <point x="490.0" y="27.0" type="line"/>
      <point x="537.0" y="30.0" type="line" smooth="yes"/>
      <point x="562.0" y="32.0"/>
      <point x="578.0" y="39.0"/>
      <point x="578.0" y="50.0" type="curve" smooth="yes"/>
      <point x="578.0" y="59.0"/>
      <point x="574.0" y="72.0"/>
      <point x="557.0" y="114.0" type="curve" smooth="yes"/>
      <point x="511.0" y="229.0" type="line"/>
      <point x="223.0" y="229.0" type="line"/>
      <point x="195.0" y="162.0" type="line" smooth="yes"/>
      <point x="174.0" y="112.0"/>
      <point x="160.0" y="69.0"/>
      <point x="160.0" y="56.0" type="curve" smooth="yes"/>
      <point x="160.0" y="40.0"/>
      <point x="173.0" y="33.0"/>
      <point x="208.0" y="30.0" type="curve" smooth="yes"/>
      <point x="245.0" y="27.0" type="line"/>
      <point x="245.0" y="-3.0" type="line"/>
      <point x="137.0" y="0.0"/>
      <point x="149" y="17"/>
      <point x="136" y="17" type="curve" smooth="yes"/>
      <point x="120" y="17"/>
      <point x="108.0" y="0.0"/>
      <point x="15.0" y="-3.0" type="curve"/>
      <point x="15.0" y="27.0" type="line"/>
      <point x="52.0" y="30.0" type="line" smooth="yes"/>
      <point x="74.0" y="32.0"/>
      <point x="94.0" y="50.0"/>
      <point x="106.0" y="79.0" type="curve" smooth="yes"/>
      <point x="284.0" y="484.0" type="line"/>
      <point x="337.0" y="605.0" type="line"/>
      <point x="376.0" y="700.0" type="line"/>
    </contour>
    <contour>
      <point x="240.0" y="269.0" type="line"/>
      <point x="493.0" y="269.0" type="line"/>
      <point x="367.0" y="567.0" type="line"/>
    </contour>
    <contour>
      <point x="392.0" y="943.0" type="curve" smooth="yes"/>
      <point x="445.0" y="943.0"/>
      <point x="490.0" y="898.0"/>
      <point x="490.0" y="843.0" type="curve" smooth="yes"/>
      <point x="490.0" y="787.0"/>
      <point x="445.0" y="743.0"/>
      <point x="390.0" y="743.0" type="curve" smooth="yes"/>
      <point x="334.0" y="743.0"/>
      <point x="290.0" y="787.0"/>
      <point x="290.0" y="844.0" type="curve" smooth="yes"/>
      <point x="290.0" y="899.0"/>
      <point x="335.0" y="943.0"/>
    </contour>
    <contour>
      <point x="391.0" y="907.0" type="curve" smooth="yes"/>
      <point x="353.0" y="907.0"/>
      <point x="302" y="882"/>
      <point x="302" y="844" type="curve" smooth="yes"/>
      <point x="302" y="804"/>
      <point x="352.0" y="779.0"/>
      <point x="390.0" y="779.0" type="curve" smooth="yes"/>
      <point x="427.0" y="779.0"/>
      <point x="476" y="805"/>
      <point x="476" y="843" type="curve" smooth="yes"/>
      <point x="476" y="881"/>
      <point x="427.0" y="907.0"/>
    </contour>
  </outline>
</glyph>
<glyph name="Egrave" format="1">
  <advance width="611"/>
  <unicode hex="00C8"/>
  <outline>
    <contour>
      <point x="22.0" y="662.0" type="line"/>
      <point x="22.0" y="692.0" type="line"/>
      <point x="121.0" y="690.0"/>
      <point x="152.0" y="675.0"/>
      <point x="186.0" y="675.0" type="curve" smooth="yes"/>
      <point x="213.0" y="675.0"/>
      <point x="270.0" y="690.0"/>
      <point x="333.0" y="691.0" type="curve" smooth="yes"/>
      <point x="374.0" y="692.0"/>
      <point x="407.0" y="692.0"/>
      <point x="432.0" y="692.0" type="curve" smooth="yes"/>
      <point x="476.0" y="692.0"/>
      <point x="507.0" y="691.0"/>
      <point x="556.0" y="689.0" type="curve"/>
      <point x="545.0" y="645.0"/>
      <point x="540.0" y="597.0"/>
      <point x="540.0" y="537.0" type="curve"/>
      <point x="505.0" y="537.0" type="line"/>
      <point x="505.0" y="602.0" type="line" smooth="yes"/>
      <point x="505.0" y="625.0"/>
      <point x="502.0" y="630.0"/>
      <point x="478.0" y="636.0" type="curve" smooth="yes"/>
      <point x="446.0" y="645.0"/>
      <point x="390.0" y="650.0"/>
      <point x="333.0" y="650.0" type="curve" smooth="yes"/>
      <point x="264.0" y="650.0"/>
      <point x="247.0" y="649.0"/>
      <point x="216.0" y="642.0" type="curve"/>
      <point x="216.0" y="375.0" type="line"/>
      <point x="250.0" y="373.0"/>
      <point x="284.0" y="372.0"/>
      <point x="326.0" y="372.0" type="curve" smooth="yes"/>
      <point x="392.0" y="372.0"/>
      <point x="420.0" y="375.0"/>
      <point x="438.0" y="383.0" type="curve"/>
      <point x="442.0" y="391.0"/>
      <point x="445.0" y="400.0"/>
      <point x="446.0" y="409.0" type="curve" smooth="yes"/>
      <point x="451.0" y="461.0" type="line"/>
      <point x="481.0" y="461.0" type="line"/>
      <point x="478.0" y="361.0"/>
      <point x="478.0" y="361.0"/>
      <point x="478.0" y="345.0" type="curve" smooth="yes"/>
      <point x="478.0" y="327.0"/>
      <point x="478.0" y="327.0"/>
      <point x="481.0" y="234.0" type="curve"/>
      <point x="451.0" y="234.0" type="line"/>
      <point x="446.0" y="293.0" type="line"/>
      <point x="438.0" y="318.0" type="line"/>
      <point x="420.0" y="327.0"/>
      <point x="393.0" y="330.0"/>
      <point x="319.0" y="330.0" type="curve" smooth="yes"/>
      <point x="274.0" y="330.0"/>
      <point x="244.0" y="329.0"/>
      <point x="216.0" y="327.0" type="curve"/>
      <point x="216.0" y="47.0" type="line"/>
      <point x="245.0" y="41.0"/>
      <point x="263.0" y="39.0"/>
      <point x="315.0" y="39.0" type="curve" smooth="yes"/>
      <point x="405.0" y="39.0"/>
      <point x="478.0" y="44.0"/>
      <point x="499.0" y="51.0" type="curve" smooth="yes"/>
      <point x="513.0" y="56.0"/>
      <point x="526.0" y="87.0"/>
      <point x="532.0" y="130.0" type="curve" smooth="yes"/>
      <point x="533.0" y="134.0"/>
      <point x="535.0" y="148.0"/>
      <point x="537.0" y="164.0" type="curve"/>
      <point x="572.0" y="164.0" type="line"/>
      <point x="562.0" y="112.0"/>
      <point x="556.0" y="58.0"/>
      <point x="556.0" y="0.0" type="curve"/>
      <point x="420.0" y="-3.0"/>
      <point x="420.0" y="-3.0"/>
      <point x="389.0" y="-3.0" type="curve" smooth="yes"/>
      <point x="367.0" y="-3.0"/>
      <point x="367.0" y="-3.0"/>
      <point x="228.0" y="-1.0" type="curve" smooth="yes"/>
      <point x="190.0" y="0.0"/>
      <point x="171" y="11"/>
      <point x="166" y="11" type="curve" smooth="yes"/>
      <point x="138" y="11"/>
      <point x="100.0" y="-1.0"/>
      <point x="34.0" y="-3.0" type="curve"/>
      <point x="34.0" y="27.0" type="line"/>
      <point x="70.0" y="30.0" type="line" smooth="yes"/>
      <point x="117.0" y="34.0"/>
      <point x="121.0" y="41.0"/>
      <point x="121.0" y="120.0" type="curve" smooth="yes"/>
      <point x="121.0" y="569.0" type="line" smooth="yes"/>
      <point x="121.0" y="648.0"/>
      <point x="116.0" y="656.0"/>
      <point x="70.0" y="659.0" type="curve" smooth="yes"/>
    </contour>
    <contour>
      <point x="346.0" y="737.0" type="line"/>
      <point x="241" y="820" type="line" smooth="yes"/>
      <point x="210" y="844"/>
      <point x="162.0" y="856.0"/>
      <point x="162.0" y="874.0" type="curve" smooth="yes"/>
      <point x="162.0" y="893.0"/>
      <point x="176.0" y="908.0"/>
      <point x="193.0" y="908.0" type="curve" smooth="yes"/>
      <point x="207.0" y="908.0"/>
      <point x="227.0" y="896.0"/>
      <point x="248.0" y="875.0" type="curve" smooth="yes"/>
      <point x="386.0" y="737.0" type="line"/>
    </contour>
  </outline>
</glyph>
<glyph name="Igrave" format="1">
  <advance width="337"/>
  <unicode hex="00CC"/>
  <outline>
    <contour>
      <point x="216.0" y="569.0" type="curve" smooth="yes"/>
      <point x="216.0" y="120.0" type="line" smooth="yes"/>
      <point x="216.0" y="41.0"/>
      <point x="221.0" y="33.0"/>
      <point x="267.0" y="30.0" type="curve" smooth="yes"/>
      <point x="315.0" y="27.0" type="line"/>
      <point x="315.0" y="-3.0" type="line"/>
      <point x="256.0" y="-1.0"/>
      <point x="220" y="14"/>
      <point x="168" y="14" type="curve" smooth="yes"/>
      <point x="116" y="14"/>
      <point x="81.0" y="-1.0"/>
      <point x="22.0" y="-3.0" type="curve"/>
      <point x="22.0" y="27.0" type="line"/>
      <point x="70.0" y="30.0" type="line" smooth="yes"/>
      <point x="116.0" y="33.0"/>
      <point x="121.0" y="41.0"/>
      <point x="121.0" y="120.0" type="curve" smooth="yes"/>
      <point x="121.0" y="569.0" type="line" smooth="yes"/>
      <point x="121.0" y="648.0"/>
      <point x="116.0" y="656.0"/>
      <point x="70.0" y="659.0" type="curve" smooth="yes"/>
      <point x="22.0" y="662.0" type="line"/>
      <point x="22.0" y="692.0" type="line"/>
      <point x="94.0" y="690.0"/>
      <point x="118" y="671"/>
      <point x="168" y="671" type="curve" smooth="yes"/>
      <point x="220" y="671"/>
      <point x="242.0" y="689.0"/>
      <point x="315.0" y="692.0" type="curve"/>
      <point x="315.0" y="662.0" type="line"/>
      <point x="267.0" y="659.0" type="line" smooth="yes"/>
      <point x="221.0" y="656.0"/>
      <point x="216.0" y="648.0"/>
    </contour>
    <contour>
      <point x="209.0" y="737.0" type="line"/>
      <point x="88" y="829" type="line" smooth="yes"/>
      <point x="56" y="853"/>
      <point x="25.0" y="856.0"/>
      <point x="25.0" y="874.0" type="curve" smooth="yes"/>
      <point x="25.0" y="893.0"/>
      <point x="39.0" y="908.0"/>
      <point x="56.0" y="908.0" type="curve" smooth="yes"/>
      <point x="70.0" y="908.0"/>
      <point x="90.0" y="896.0"/>
      <point x="111.0" y="875.0" type="curve" smooth="yes"/>
      <point x="249.0" y="737.0" type="line"/>
    </contour>
  </outline>
</glyph>
<glyph name="Iacute" format="1">
  <advance width="337"/>
  <unicode hex="00CD"/>
  <outline>
    <contour>
      <point x="216.0" y="569.0" type="curve" smooth="yes"/>
      <point x="216.0" y="120.0" type="line" smooth="yes"/>
      <point x="216.0" y="41.0"/>
      <point x="221.0" y="33.0"/>
      <point x="267.0" y="30.0" type="curve" smooth="yes"/>
      <point x="315.0" y="27.0" type="line"/>
      <point x="315.0" y="-3.0" type="line"/>
      <point x="256.0" y="-1.0"/>
      <point x="220" y="18"/>
      <point x="168" y="18" type="curve" smooth="yes"/>
      <point x="116" y="18"/>
      <point x="81.0" y="-1.0"/>
      <point x="22.0" y="-3.0" type="curve"/>
      <point x="22.0" y="27.0" type="line"/>
      <point x="70.0" y="30.0" type="line" smooth="yes"/>
      <point x="116.0" y="33.0"/>
      <point x="121.0" y="41.0"/>
      <point x="121.0" y="120.0" type="curve" smooth="yes"/>
      <point x="121.0" y="569.0" type="line" smooth="yes"/>
      <point x="121.0" y="648.0"/>
      <point x="116.0" y="656.0"/>
      <point x="70.0" y="659.0" type="curve" smooth="yes"/>
      <point x="22.0" y="662.0" type="line"/>
      <point x="22.0" y="692.0" type="line"/>
      <point x="94.0" y="690.0"/>
      <point x="118" y="673"/>
      <point x="168" y="673" type="curve" smooth="yes"/>
      <point x="220" y="673"/>
      <point x="242.0" y="689.0"/>
      <point x="315.0" y="692.0" type="curve"/>
      <point x="315.0" y="662.0" type="line"/>
      <point x="267.0" y="659.0" type="line" smooth="yes"/>
      <point x="221.0" y="656.0"/>
      <point x="216.0" y="648.0"/>
    </contour>
    <contour>
      <point x="80.0" y="737.0" type="line"/>
      <point x="218.0" y="875.0" type="line" smooth="yes"/>
      <point x="240.0" y="897.0"/>
      <point x="258.0" y="908.0"/>
      <point x="273.0" y="908.0" type="curve" smooth="yes"/>
      <point x="290.0" y="908.0"/>
      <point x="304.0" y="893.0"/>
      <point x="304.0" y="874.0" type="curve" smooth="yes"/>
      <point x="304.0" y="856.0"/>
      <point x="264" y="855"/>
      <point x="232" y="829" type="curve" smooth="yes"/>
      <point x="120.0" y="737.0" type="line"/>
    </contour>
  </outline>
</glyph>
<glyph name="Abreve" format="1">
  <advance width="778"/>
  <unicode hex="0102"/>
  <outline>
    <contour>
      <point x="408.0" y="700.0" type="line"/>
      <point x="650.0" y="132.0" type="line" smooth="yes"/>
      <point x="685.0" y="51.0"/>
      <point x="696.0" y="34.0"/>
      <point x="722.0" y="30.0" type="curve"/>
      <point x="756.0" y="27.0" type="line"/>
      <point x="756.0" y="-3.0" type="line"/>
      <point x="648.0" y="0.0"/>
      <point x="648" y="18"/>
      <point x="629" y="18" type="curve" smooth="yes"/>
      <point x="613" y="18"/>
      <point x="613.0" y="0.0"/>
      <point x="490.0" y="-3.0" type="curve"/>
      <point x="490.0" y="27.0" type="line"/>
      <point x="537.0" y="30.0" type="line" smooth="yes"/>
      <point x="562.0" y="32.0"/>
      <point x="578.0" y="39.0"/>
      <point x="578.0" y="50.0" type="curve" smooth="yes"/>
      <point x="578.0" y="59.0"/>
      <point x="574.0" y="72.0"/>
      <point x="557.0" y="114.0" type="curve" smooth="yes"/>
      <point x="511.0" y="229.0" type="line"/>
      <point x="223.0" y="229.0" type="line"/>
      <point x="195.0" y="162.0" type="line" smooth="yes"/>
      <point x="174.0" y="112.0"/>
      <point x="160.0" y="69.0"/>
      <point x="160.0" y="56.0" type="curve" smooth="yes"/>
      <point x="160.0" y="40.0"/>
      <point x="173.0" y="33.0"/>
      <point x="208.0" y="30.0" type="curve" smooth="yes"/>
      <point x="245.0" y="27.0" type="line"/>
      <point x="245.0" y="-3.0" type="line"/>
      <point x="137.0" y="0.0"/>
      <point x="146" y="16"/>
      <point x="133" y="16" type="curve" smooth="yes"/>
      <point x="117" y="16"/>
      <point x="108.0" y="0.0"/>
      <point x="15.0" y="-3.0" type="curve"/>
      <point x="15.0" y="27.0" type="line"/>
      <point x="52.0" y="30.0" type="line" smooth="yes"/>
      <point x="74.0" y="32.0"/>
      <point x="94.0" y="50.0"/>
      <point x="106.0" y="79.0" type="curve" smooth="yes"/>
      <point x="284.0" y="484.0" type="line"/>
      <point x="337.0" y="605.0" type="line"/>
      <point x="376.0" y="700.0" type="line"/>
    </contour>
    <contour>
      <point x="240.0" y="269.0" type="line"/>
      <point x="493.0" y="269.0" type="line"/>
      <point x="367.0" y="567.0" type="line"/>
    </contour>
    <contour>
      <point x="249.0" y="895.0" type="curve"/>
      <point x="279.0" y="895.0" type="line"/>
      <point x="282.0" y="838.0"/>
      <point x="326" y="749"/>
      <point x="388" y="749" type="curve" smooth="yes"/>
      <point x="450" y="749"/>
      <point x="498.0" y="838.0"/>
      <point x="501.0" y="895.0" type="curve"/>
      <point x="531.0" y="895.0" type="line"/>
      <point x="529.0" y="851.0"/>
      <point x="523.0" y="829.0"/>
      <point x="507.0" y="802.0" type="curve" smooth="yes"/>
      <point x="483.0" y="760.0"/>
      <point x="441.0" y="737.0"/>
      <point x="390.0" y="737.0" type="curve" smooth="yes"/>
      <point x="336.0" y="737.0"/>
      <point x="293.0" y="762.0"/>
      <point x="269.0" y="808.0" type="curve" smooth="yes"/>
      <point x="256.0" y="834.0"/>
      <point x="251.0" y="854.0"/>
    </contour>
  </outline>
</glyph>
<glyph name="Aogonek" format="1">
  <advance width="778"/>
  <unicode hex="0104"/>
  <outline>
    <contour>
      <point x="756.0" y="27.0" type="line"/>
      <point x="756.0" y="-3.0" type="line"/>
      <point x="748.0" y="-2.0"/>
      <point x="736.0" y="-2.0"/>
      <point x="733.0" y="-2.0" type="curve" smooth="yes"/>
      <point x="684.0" y="-2.0"/>
      <point x="648.0" y="-28.0"/>
      <point x="648.0" y="-63.0" type="curve" smooth="yes"/>
      <point x="648.0" y="-85.0"/>
      <point x="666.0" y="-104.0"/>
      <point x="688.0" y="-104.0" type="curve" smooth="yes"/>
      <point x="711.0" y="-104.0"/>
      <point x="735.0" y="-92.0"/>
      <point x="762.0" y="-68.0" type="curve"/>
      <point x="778.0" y="-89.0" type="line"/>
      <point x="732.0" y="-129.0"/>
      <point x="701.0" y="-145.0"/>
      <point x="666.0" y="-145.0" type="curve" smooth="yes"/>
      <point x="630.0" y="-145.0"/>
      <point x="601.0" y="-117.0"/>
      <point x="601.0" y="-81.0" type="curve" smooth="yes"/>
      <point x="601.0" y="-50.0"/>
      <point x="618.0" y="-23.0"/>
      <point x="651.0" y="0.0" type="curve"/>
      <point x="638.0" y="19.0" type="line" smooth="yes"/>
      <point x="630.0" y="30.0"/>
      <point x="613.0" y="0.0"/>
      <point x="490.0" y="-3.0" type="curve"/>
      <point x="490.0" y="27.0" type="line"/>
      <point x="537.0" y="30.0" type="line" smooth="yes"/>
      <point x="562.0" y="32.0"/>
      <point x="578.0" y="39.0"/>
      <point x="578.0" y="50.0" type="curve" smooth="yes"/>
      <point x="578.0" y="59.0"/>
      <point x="574.0" y="72.0"/>
      <point x="557.0" y="114.0" type="curve" smooth="yes"/>
      <point x="511.0" y="229.0" type="line"/>
      <point x="223.0" y="229.0" type="line"/>
      <point x="195.0" y="162.0" type="line" smooth="yes"/>
      <point x="174.0" y="112.0"/>
      <point x="160.0" y="69.0"/>
      <point x="160.0" y="56.0" type="curve" smooth="yes"/>
      <point x="160.0" y="40.0"/>
      <point x="173.0" y="33.0"/>
      <point x="208.0" y="30.0" type="curve" smooth="yes"/>
      <point x="245.0" y="27.0" type="line"/>
      <point x="245.0" y="-3.0" type="line"/>
      <point x="137.0" y="0.0"/>
      <point x="143.0" y="19.0"/>
      <point x="130.0" y="19.0" type="curve" smooth="yes"/>
      <point x="114.0" y="19.0"/>
      <point x="108.0" y="0.0"/>
      <point x="15.0" y="-3.0" type="curve"/>
      <point x="15.0" y="27.0" type="line"/>
      <point x="52.0" y="30.0" type="line" smooth="yes"/>
      <point x="74.0" y="32.0"/>
      <point x="94.0" y="50.0"/>
      <point x="106.0" y="79.0" type="curve" smooth="yes"/>
      <point x="284.0" y="484.0" type="line"/>
      <point x="337.0" y="605.0" type="line"/>
      <point x="376.0" y="700.0" type="line"/>
      <point x="408.0" y="700.0" type="line"/>
      <point x="650.0" y="132.0" type="line" smooth="yes"/>
      <point x="685.0" y="51.0"/>
      <point x="696.0" y="34.0"/>
      <point x="722.0" y="30.0" type="curve"/>
    </contour>
    <contour>
      <point x="240.0" y="269.0" type="line"/>
      <point x="493.0" y="269.0" type="line"/>
      <point x="367.0" y="567.0" type="line"/>
    </contour>
  </outline>
</glyph>
<glyph name="Cacute" format="1">
  <advance width="709"/>
  <unicode hex="0106"/>
  <outline>
    <contour>
      <point x="670.0" y="84.0" type="line"/>
      <point x="642.0" y="34.0" type="line"/>
      <point x="573.0" y="-2.0"/>
      <point x="498.0" y="-20.0"/>
      <point x="415.0" y="-20.0" type="curve" smooth="yes"/>
      <point x="180.0" y="-20.0"/>
      <point x="22.0" y="126.0"/>
      <point x="22.0" y="342.0" type="curve" smooth="yes"/>
      <point x="22.0" y="477.0"/>
      <point x="82.0" y="582.0"/>
      <point x="196.0" y="649.0" type="curve" smooth="yes"/>
      <point x="263.0" y="688.0"/>
      <point x="346.0" y="709.0"/>
      <point x="433.0" y="709.0" type="curve" smooth="yes"/>
      <point x="506.0" y="709.0"/>
      <point x="579.0" y="696.0"/>
      <point x="664.0" y="668.0" type="curve"/>
      <point x="650.0" y="602.0"/>
      <point x="646.0" y="566.0"/>
      <point x="645.0" y="516.0" type="curve"/>
      <point x="614.0" y="516.0" type="line"/>
      <point x="626.0" y="604.0" type="line" smooth="yes"/>
      <point x="631.0" y="643.0"/>
      <point x="513.0" y="667.0"/>
      <point x="415.0" y="667.0" type="curve" smooth="yes"/>
      <point x="243.0" y="667.0"/>
      <point x="129.0" y="545.0"/>
      <point x="129.0" y="361.0" type="curve" smooth="yes"/>
      <point x="129.0" y="164.0"/>
      <point x="247" y="18"/>
      <point x="442" y="18" type="curve" smooth="yes"/>
      <point x="518" y="18"/>
      <point x="599.0" y="54.0"/>
      <point x="661.0" y="94.0" type="curve"/>
    </contour>
    <contour>
      <point x="326.0" y="737.0" type="line"/>
      <point x="464.0" y="875.0" type="line" smooth="yes"/>
      <point x="486.0" y="897.0"/>
      <point x="504.0" y="908.0"/>
      <point x="519.0" y="908.0" type="curve" smooth="yes"/>
      <point x="536.0" y="908.0"/>
      <point x="550.0" y="893.0"/>
      <point x="550.0" y="874.0" type="curve" smooth="yes"/>
      <point x="550.0" y="856.0"/>
      <point x="508.0" y="855.0"/>
      <point x="477.0" y="829.0" type="curve" smooth="yes"/>
      <point x="366.0" y="737.0" type="line"/>
    </contour>
  </outline>
</glyph>
<glyph name="Ccircumflex" format="1">
  <advance width="709"/>
  <unicode hex="0108"/>
  <outline>
    <contour>
      <point x="315.0" y="959.0" type="line"/>
      <point x="377.0" y="959.0" type="line"/>
      <point x="502.0" y="792.0" type="line"/>
      <point x="467.0" y="792.0" type="line"/>
      <point x="348.0" y="931.0" type="line"/>
      <point x="225.0" y="792.0" type="line"/>
      <point x="190.0" y="792.0" type="line"/>
    </contour>
    <contour>
      <point x="670.0" y="84.0" type="line"/>
      <point x="642.0" y="34.0" type="line"/>
      <point x="573.0" y="-2.0"/>
      <point x="498.0" y="-20.0"/>
      <point x="415.0" y="-20.0" type="curve" smooth="yes"/>
      <point x="180.0" y="-20.0"/>
      <point x="22.0" y="126.0"/>
      <point x="22.0" y="342.0" type="curve" smooth="yes"/>
      <point x="22.0" y="477.0"/>
      <point x="82.0" y="582.0"/>
      <point x="196.0" y="649.0" type="curve" smooth="yes"/>
      <point x="263.0" y="688.0"/>
      <point x="346.0" y="709.0"/>
      <point x="433.0" y="709.0" type="curve" smooth="yes"/>
      <point x="506.0" y="709.0"/>
      <point x="579.0" y="696.0"/>
      <point x="664.0" y="668.0" type="curve"/>
      <point x="650.0" y="602.0"/>
      <point x="646.0" y="566.0"/>
      <point x="645.0" y="516.0" type="curve"/>
      <point x="614.0" y="516.0" type="line"/>
      <point x="616.0" y="605.0" type="line" smooth="yes"/>
      <point x="617.0" y="644.0"/>
      <point x="513.0" y="667.0"/>
      <point x="415.0" y="667.0" type="curve" smooth="yes"/>
      <point x="243.0" y="667.0"/>
      <point x="129.0" y="545.0"/>
      <point x="129.0" y="361.0" type="curve" smooth="yes"/>
      <point x="129.0" y="164.0"/>
      <point x="220" y="22"/>
      <point x="415" y="22" type="curve" smooth="yes"/>
      <point x="491" y="22"/>
      <point x="599.0" y="54.0"/>
      <point x="661.0" y="94.0" type="curve"/>
    </contour>
  </outline>
</glyph>
<glyph name="Cdotaccent" format="1">
  <advance width="709"/>
  <unicode hex="010A"/>
  <outline>
    <contour>
      <point x="347" y="884" type="curve" smooth="yes"/>
      <point x="376" y="884"/>
      <point x="396.0" y="871.0"/>
      <point x="396.0" y="842.0" type="curve" smooth="yes"/>
      <point x="396.0" y="812.0"/>
      <point x="376" y="815"/>
      <point x="346" y="815" type="curve" smooth="yes"/>
      <point x="316" y="815"/>
      <point x="296.0" y="812.0"/>
      <point x="296.0" y="842.0" type="curve" smooth="yes"/>
      <point x="296.0" y="872.0"/>
      <point x="316" y="884"/>
    </contour>
    <contour>
      <point x="670.0" y="84.0" type="line"/>
      <point x="642.0" y="34.0" type="line"/>
      <point x="573.0" y="-2.0"/>
      <point x="498.0" y="-20.0"/>
      <point x="415.0" y="-20.0" type="curve" smooth="yes"/>
      <point x="180.0" y="-20.0"/>
      <point x="22.0" y="126.0"/>
      <point x="22.0" y="342.0" type="curve" smooth="yes"/>
      <point x="22.0" y="477.0"/>
      <point x="82.0" y="582.0"/>
      <point x="196.0" y="649.0" type="curve" smooth="yes"/>
      <point x="263.0" y="688.0"/>
      <point x="346.0" y="709.0"/>
      <point x="433.0" y="709.0" type="curve" smooth="yes"/>
      <point x="506.0" y="709.0"/>
      <point x="579.0" y="696.0"/>
      <point x="664.0" y="668.0" type="curve"/>
      <point x="650.0" y="602.0"/>
      <point x="646.0" y="566.0"/>
      <point x="645.0" y="516.0" type="curve"/>
      <point x="614.0" y="516.0" type="line"/>
      <point x="607" y="606" type="line" smooth="yes"/>
      <point x="604" y="645"/>
      <point x="513.0" y="667.0"/>
      <point x="415.0" y="667.0" type="curve" smooth="yes"/>
      <point x="243.0" y="667.0"/>
      <point x="129.0" y="545.0"/>
      <point x="129.0" y="361.0" type="curve" smooth="yes"/>
      <point x="129.0" y="164.0"/>
      <point x="241" y="20"/>
      <point x="436" y="20" type="curve" smooth="yes"/>
      <point x="512" y="20"/>
      <point x="599.0" y="54.0"/>
      <point x="661.0" y="94.0" type="curve"/>
    </contour>
  </outline>
</glyph>
<glyph name="Dcaron" format="1">
  <advance width="774"/>
  <unicode hex="010E"/>
  <outline>
    <contour>
      <point x="57.0" y="20.0" type="line"/>
      <point x="88.0" y="36.0" type="line" smooth="yes"/>
      <point x="104.0" y="44.0"/>
      <point x="113.0" y="66.0"/>
      <point x="113.0" y="95.0" type="curve" smooth="yes"/>
      <point x="113.0" y="569.0" type="line" smooth="yes"/>
      <point x="113.0" y="647.0"/>
      <point x="108.0" y="656.0"/>
      <point x="62.0" y="659.0" type="curve" smooth="yes"/>
      <point x="22.0" y="662.0" type="line"/>
      <point x="22.0" y="692.0" type="line"/>
      <point x="136.0" y="690.0"/>
      <point x="175" y="680"/>
      <point x="212" y="680" type="curve" smooth="yes"/>
      <point x="255" y="680"/>
      <point x="314.0" y="690.0"/>
      <point x="364.0" y="691.0" type="curve" smooth="yes"/>
      <point x="382.0" y="692.0"/>
      <point x="395.0" y="692.0"/>
      <point x="402.0" y="692.0" type="curve" smooth="yes"/>
      <point x="613.0" y="692.0"/>
      <point x="751.0" y="571.0"/>
      <point x="751.0" y="385.0" type="curve" smooth="yes"/>
      <point x="751.0" y="278.0"/>
      <point x="707.0" y="170.0"/>
      <point x="635.0" y="99.0" type="curve" smooth="yes"/>
      <point x="565.0" y="30.0"/>
      <point x="469.0" y="-3.0"/>
      <point x="341.0" y="-3.0" type="curve" smooth="yes"/>
      <point x="327.0" y="-3.0"/>
      <point x="327.0" y="-3.0"/>
      <point x="248.0" y="-1.0" type="curve" smooth="yes"/>
      <point x="230.0" y="0.0"/>
      <point x="196" y="14"/>
      <point x="178" y="14" type="curve" smooth="yes"/>
      <point x="155" y="14"/>
      <point x="173.0" y="0.0"/>
      <point x="57.0" y="-3.0" type="curve"/>
    </contour>
    <contour>
      <point x="208.0" y="644.0" type="curve"/>
      <point x="208.0" y="49.0" type="line"/>
      <point x="234.0" y="43.0"/>
      <point x="265.0" y="41.0"/>
      <point x="311.0" y="41.0" type="curve" smooth="yes"/>
      <point x="424.0" y="41.0"/>
      <point x="484.0" y="58.0"/>
      <point x="544.0" y="107.0" type="curve" smooth="yes"/>
      <point x="610.0" y="161.0"/>
      <point x="644.0" y="247.0"/>
      <point x="644.0" y="359.0" type="curve" smooth="yes"/>
      <point x="644.0" y="459.0"/>
      <point x="621.0" y="531.0"/>
      <point x="573.0" y="579.0" type="curve" smooth="yes"/>
      <point x="555.0" y="597.0"/>
      <point x="536.0" y="611.0"/>
      <point x="514.0" y="620.0" type="curve" smooth="yes"/>
      <point x="472.0" y="639.0"/>
      <point x="392.0" y="652.0"/>
      <point x="319.0" y="652.0" type="curve" smooth="yes"/>
      <point x="269.0" y="652.0"/>
      <point x="234.0" y="649.0"/>
    </contour>
    <contour>
      <point x="388" y="771" type="line"/>
      <point x="510.0" y="908.0" type="line"/>
      <point x="544.0" y="908.0" type="line"/>
      <point x="419.0" y="741.0" type="line"/>
      <point x="357.0" y="741.0" type="line"/>
      <point x="232.0" y="908.0" type="line"/>
      <point x="267.0" y="908.0" type="line"/>
    </contour>
  </outline>
</glyph>
<glyph name="Emacron" format="1">
  <advance width="611"/>
  <unicode hex="0112"/>
  <outline>
    <contour>
      <point x="22.0" y="662.0" type="line"/>
      <point x="22.0" y="692.0" type="line"/>
      <point x="121.0" y="690.0"/>
      <point x="153" y="674"/>
      <point x="187" y="674" type="curve" smooth="yes"/>
      <point x="214" y="674"/>
      <point x="270.0" y="690.0"/>
      <point x="333.0" y="691.0" type="curve" smooth="yes"/>
      <point x="374.0" y="692.0"/>
      <point x="407.0" y="692.0"/>
      <point x="432.0" y="692.0" type="curve" smooth="yes"/>
      <point x="476.0" y="692.0"/>
      <point x="507.0" y="691.0"/>
      <point x="556.0" y="689.0" type="curve"/>
      <point x="545.0" y="645.0"/>
      <point x="540.0" y="597.0"/>
      <point x="540.0" y="537.0" type="curve"/>
      <point x="505.0" y="537.0" type="line"/>
      <point x="505.0" y="602.0" type="line" smooth="yes"/>
      <point x="505.0" y="625.0"/>
      <point x="502.0" y="630.0"/>
      <point x="478.0" y="636.0" type="curve" smooth="yes"/>
      <point x="446.0" y="645.0"/>
      <point x="390.0" y="650.0"/>
      <point x="333.0" y="650.0" type="curve" smooth="yes"/>
      <point x="264.0" y="650.0"/>
      <point x="247.0" y="649.0"/>
      <point x="216.0" y="642.0" type="curve"/>
      <point x="216.0" y="375.0" type="line"/>
      <point x="250.0" y="373.0"/>
      <point x="284.0" y="372.0"/>
      <point x="326.0" y="372.0" type="curve" smooth="yes"/>
      <point x="392.0" y="372.0"/>
      <point x="420.0" y="375.0"/>
      <point x="438.0" y="383.0" type="curve"/>
      <point x="442.0" y="391.0"/>
      <point x="445.0" y="400.0"/>
      <point x="446.0" y="409.0" type="curve" smooth="yes"/>
      <point x="451.0" y="461.0" type="line"/>
      <point x="481.0" y="461.0" type="line"/>
      <point x="478.0" y="361.0"/>
      <point x="478.0" y="361.0"/>
      <point x="478.0" y="345.0" type="curve" smooth="yes"/>
      <point x="478.0" y="327.0"/>
      <point x="478.0" y="327.0"/>
      <point x="481.0" y="234.0" type="curve"/>
      <point x="451.0" y="234.0" type="line"/>
      <point x="446.0" y="293.0" type="line"/>
      <point x="438.0" y="318.0" type="line"/>
      <point x="420.0" y="327.0"/>
      <point x="393.0" y="330.0"/>
      <point x="319.0" y="330.0" type="curve" smooth="yes"/>
      <point x="274.0" y="330.0"/>
      <point x="244.0" y="329.0"/>
      <point x="216.0" y="327.0" type="curve"/>
      <point x="216.0" y="47.0" type="line"/>
      <point x="245.0" y="41.0"/>
      <point x="263.0" y="39.0"/>
      <point x="315.0" y="39.0" type="curve" smooth="yes"/>
      <point x="405.0" y="39.0"/>
      <point x="478.0" y="44.0"/>
      <point x="499.0" y="51.0" type="curve" smooth="yes"/>
      <point x="513.0" y="56.0"/>
      <point x="526.0" y="87.0"/>
      <point x="532.0" y="130.0" type="curve" smooth="yes"/>
      <point x="533.0" y="134.0"/>
      <point x="535.0" y="148.0"/>
      <point x="537.0" y="164.0" type="curve"/>
      <point x="572.0" y="164.0" type="line"/>
      <point x="562.0" y="112.0"/>
      <point x="556.0" y="58.0"/>
      <point x="556.0" y="0.0" type="curve"/>
      <point x="420.0" y="-3.0"/>
      <point x="420.0" y="-3.0"/>
      <point x="389.0" y="-3.0" type="curve" smooth="yes"/>
      <point x="367.0" y="-3.0"/>
      <point x="367.0" y="-3.0"/>
      <point x="228.0" y="-1.0" type="curve" smooth="yes"/>
      <point x="190.0" y="0.0"/>
      <point x="181" y="15"/>
      <point x="176" y="15" type="curve" smooth="yes"/>
      <point x="148" y="15"/>
      <point x="100.0" y="-1.0"/>
      <point x="34.0" y="-3.0" type="curve"/>
      <point x="34.0" y="27.0" type="line"/>
      <point x="70.0" y="30.0" type="line" smooth="yes"/>
      <point x="117.0" y="34.0"/>
      <point x="121.0" y="41.0"/>
      <point x="121.0" y="120.0" type="curve" smooth="yes"/>
      <point x="121.0" y="569.0" type="line" smooth="yes"/>
      <point x="121.0" y="648.0"/>
      <point x="116.0" y="656.0"/>
      <point x="70.0" y="659.0" type="curve" smooth="yes"/>
    </contour>
    <contour>
      <point x="435.0" y="796.0" type="line"/>
      <point x="123.0" y="796.0" type="line"/>
      <point x="150.0" y="822.0" type="line"/>
      <point x="462.0" y="822.0" type="line"/>
    </contour>
  </outline>
</glyph>
<glyph name="Ebreve" format="1">
  <advance width="611"/>
  <unicode hex="0114"/>
  <outline>
    <contour>
      <point x="156.0" y="950.0" type="curve"/>
      <point x="186.0" y="950.0" type="line"/>
      <point x="189.0" y="893.0"/>
      <point x="235.0" y="835.0"/>
      <point x="297.0" y="835.0" type="curve" smooth="yes"/>
      <point x="359.0" y="835.0"/>
      <point x="405.0" y="893.0"/>
      <point x="408.0" y="950.0" type="curve"/>
      <point x="438.0" y="950.0" type="line"/>
      <point x="436.0" y="906.0"/>
      <point x="430.0" y="884.0"/>
      <point x="414.0" y="857.0" type="curve" smooth="yes"/>
      <point x="390.0" y="815.0"/>
      <point x="348.0" y="792.0"/>
      <point x="297.0" y="792.0" type="curve" smooth="yes"/>
      <point x="243.0" y="792.0"/>
      <point x="200.0" y="817.0"/>
      <point x="176.0" y="863.0" type="curve" smooth="yes"/>
      <point x="163.0" y="889.0"/>
      <point x="158.0" y="909.0"/>
    </contour>
    <contour>
      <point x="22.0" y="662.0" type="line"/>
      <point x="22.0" y="692.0" type="line"/>
      <point x="121.0" y="690.0"/>
      <point x="145" y="675"/>
      <point x="179" y="675" type="curve" smooth="yes"/>
      <point x="206" y="675"/>
      <point x="270.0" y="690.0"/>
      <point x="333.0" y="691.0" type="curve" smooth="yes"/>
      <point x="374.0" y="692.0"/>
      <point x="407.0" y="692.0"/>
      <point x="432.0" y="692.0" type="curve" smooth="yes"/>
      <point x="476.0" y="692.0"/>
      <point x="507.0" y="691.0"/>
      <point x="556.0" y="689.0" type="curve"/>
      <point x="545.0" y="645.0"/>
      <point x="540.0" y="597.0"/>
      <point x="540.0" y="537.0" type="curve"/>
      <point x="505.0" y="537.0" type="line"/>
      <point x="505.0" y="602.0" type="line" smooth="yes"/>
      <point x="505.0" y="625.0"/>
      <point x="502.0" y="630.0"/>
      <point x="478.0" y="636.0" type="curve" smooth="yes"/>
      <point x="446.0" y="645.0"/>
      <point x="390.0" y="650.0"/>
      <point x="333.0" y="650.0" type="curve" smooth="yes"/>
      <point x="264.0" y="650.0"/>
      <point x="247.0" y="649.0"/>
      <point x="216.0" y="642.0" type="curve"/>
      <point x="216.0" y="375.0" type="line"/>
      <point x="250.0" y="373.0"/>
      <point x="284.0" y="372.0"/>
      <point x="326.0" y="372.0" type="curve" smooth="yes"/>
      <point x="392.0" y="372.0"/>
      <point x="420.0" y="375.0"/>
      <point x="438.0" y="383.0" type="curve"/>
      <point x="442.0" y="391.0"/>
      <point x="445.0" y="400.0"/>
      <point x="446.0" y="409.0" type="curve" smooth="yes"/>
      <point x="451.0" y="461.0" type="line"/>
      <point x="481.0" y="461.0" type="line"/>
      <point x="478.0" y="361.0"/>
      <point x="478.0" y="361.0"/>
      <point x="478.0" y="345.0" type="curve" smooth="yes"/>
      <point x="478.0" y="327.0"/>
      <point x="478.0" y="327.0"/>
      <point x="481.0" y="234.0" type="curve"/>
      <point x="451.0" y="234.0" type="line"/>
      <point x="446.0" y="293.0" type="line"/>
      <point x="438.0" y="318.0" type="line"/>
      <point x="420.0" y="327.0"/>
      <point x="393.0" y="330.0"/>
      <point x="319.0" y="330.0" type="curve" smooth="yes"/>
      <point x="274.0" y="330.0"/>
      <point x="244.0" y="329.0"/>
      <point x="216.0" y="327.0" type="curve"/>
      <point x="216.0" y="47.0" type="line"/>
      <point x="245.0" y="41.0"/>
      <point x="263.0" y="39.0"/>
      <point x="315.0" y="39.0" type="curve" smooth="yes"/>
      <point x="405.0" y="39.0"/>
      <point x="478.0" y="44.0"/>
      <point x="499.0" y="51.0" type="curve" smooth="yes"/>
      <point x="513.0" y="56.0"/>
      <point x="526.0" y="87.0"/>
      <point x="532.0" y="130.0" type="curve" smooth="yes"/>
      <point x="533.0" y="134.0"/>
      <point x="535.0" y="148.0"/>
      <point x="537.0" y="164.0" type="curve"/>
      <point x="572.0" y="164.0" type="line"/>
      <point x="562.0" y="112.0"/>
      <point x="556.0" y="58.0"/>
      <point x="556.0" y="0.0" type="curve"/>
      <point x="420.0" y="-3.0"/>
      <point x="420.0" y="-3.0"/>
      <point x="389.0" y="-3.0" type="curve" smooth="yes"/>
      <point x="367.0" y="-3.0"/>
      <point x="367.0" y="-3.0"/>
      <point x="228.0" y="-1.0" type="curve" smooth="yes"/>
      <point x="190.0" y="0.0"/>
      <point x="172" y="14"/>
      <point x="167" y="14" type="curve" smooth="yes"/>
      <point x="139" y="14"/>
      <point x="100.0" y="-1.0"/>
      <point x="34.0" y="-3.0" type="curve"/>
      <point x="34.0" y="27.0" type="line"/>
      <point x="70.0" y="30.0" type="line" smooth="yes"/>
      <point x="117.0" y="34.0"/>
      <point x="121.0" y="41.0"/>
      <point x="121.0" y="120.0" type="curve" smooth="yes"/>
      <point x="121.0" y="569.0" type="line" smooth="yes"/>
      <point x="121.0" y="648.0"/>
      <point x="116.0" y="656.0"/>
      <point x="70.0" y="659.0" type="curve" smooth="yes"/>
    </contour>
  </outline>
</glyph>
<glyph name="Hcircumflex" format="1">
  <advance width="832"/>
  <unicode hex="0124"/>
  <outline>
    <contour>
      <point x="385.0" y="959.0" type="line"/>
      <point x="447.0" y="959.0" type="line"/>
      <point x="572.0" y="792.0" type="line"/>
      <point x="537.0" y="792.0" type="line"/>
      <point x="416.0" y="921.0" type="line"/>
      <point x="295.0" y="792.0" type="line"/>
      <point x="260.0" y="792.0" type="line"/>
    </contour>
    <contour>
      <point x="616.0" y="120.0" type="curve" smooth="yes"/>
      <point x="616.0" y="343.0" type="line"/>
      <point x="589.0" y="345.0"/>
      <point x="573.0" y="345.0"/>
      <point x="533.0" y="345.0" type="curve" smooth="yes"/>
      <point x="299.0" y="345.0" type="line" smooth="yes"/>
      <point x="259.0" y="345.0"/>
      <point x="243.0" y="345.0"/>
      <point x="216.0" y="343.0" type="curve"/>
      <point x="216.0" y="120.0" type="line" smooth="yes"/>
      <point x="216.0" y="41.0"/>
      <point x="221.0" y="33.0"/>
      <point x="267.0" y="30.0" type="curve" smooth="yes"/>
      <point x="315.0" y="27.0" type="line"/>
      <point x="315.0" y="-3.0" type="line"/>
      <point x="256.0" y="-1.0"/>
      <point x="220" y="17"/>
      <point x="168" y="17" type="curve" smooth="yes"/>
      <point x="116" y="17"/>
      <point x="81.0" y="-1.0"/>
      <point x="22.0" y="-3.0" type="curve"/>
      <point x="22.0" y="27.0" type="line"/>
      <point x="70.0" y="30.0" type="line" smooth="yes"/>
      <point x="116.0" y="33.0"/>
      <point x="121.0" y="41.0"/>
      <point x="121.0" y="120.0" type="curve" smooth="yes"/>
      <point x="121.0" y="569.0" type="line" smooth="yes"/>
      <point x="121.0" y="648.0"/>
      <point x="116.0" y="656.0"/>
      <point x="70.0" y="659.0" type="curve" smooth="yes"/>
      <point x="22.0" y="662.0" type="line"/>
      <point x="22.0" y="692.0" type="line"/>
      <point x="94.0" y="690.0"/>
      <point x="118" y="670"/>
      <point x="168" y="670" type="curve" smooth="yes"/>
      <point x="220" y="670"/>
      <point x="242.0" y="689.0"/>
      <point x="315.0" y="692.0" type="curve"/>
      <point x="315.0" y="662.0" type="line"/>
      <point x="267.0" y="659.0" type="line" smooth="yes"/>
      <point x="221.0" y="656.0"/>
      <point x="216.0" y="648.0"/>
      <point x="216.0" y="569.0" type="curve" smooth="yes"/>
      <point x="216.0" y="391.0" type="line"/>
      <point x="236.0" y="390.0"/>
      <point x="258.0" y="389.0"/>
      <point x="299.0" y="389.0" type="curve" smooth="yes"/>
      <point x="533.0" y="389.0" type="line" smooth="yes"/>
      <point x="574.0" y="389.0"/>
      <point x="595.0" y="390.0"/>
      <point x="616.0" y="391.0" type="curve"/>
      <point x="616.0" y="569.0" type="line" smooth="yes"/>
      <point x="616.0" y="648.0"/>
      <point x="611.0" y="656.0"/>
      <point x="565.0" y="659.0" type="curve" smooth="yes"/>
      <point x="517.0" y="662.0" type="line"/>
      <point x="517.0" y="692.0" type="line"/>
      <point x="589.0" y="690.0"/>
      <point x="613" y="672"/>
      <point x="663" y="672" type="curve" smooth="yes"/>
      <point x="715" y="672"/>
      <point x="737.0" y="689.0"/>
      <point x="810.0" y="692.0" type="curve"/>
      <point x="810.0" y="662.0" type="line"/>
      <point x="762.0" y="659.0" type="line" smooth="yes"/>
      <point x="716.0" y="656.0"/>
      <point x="711.0" y="648.0"/>
      <point x="711.0" y="569.0" type="curve" smooth="yes"/>
      <point x="711.0" y="120.0" type="line" smooth="yes"/>
      <point x="711.0" y="41.0"/>
      <point x="716.0" y="33.0"/>
      <point x="762.0" y="30.0" type="curve" smooth="yes"/>
      <point x="810.0" y="27.0" type="line"/>
      <point x="810.0" y="-3.0" type="line"/>
      <point x="751.0" y="-1.0"/>
      <point x="715" y="19"/>
      <point x="663" y="19" type="curve" smooth="yes"/>
      <point x="611" y="19"/>
      <point x="576.0" y="-1.0"/>
      <point x="517.0" y="-3.0" type="curve"/>
      <point x="517.0" y="27.0" type="line"/>
      <point x="565.0" y="30.0" type="line" smooth="yes"/>
      <point x="611.0" y="33.0"/>
      <point x="616.0" y="41.0"/>
    </contour>
  </outline>
</glyph>
<glyph name="Itilde" format="1">
  <advance width="337"/>
  <unicode hex="0128"/>
  <outline>
    <contour>
      <point x="305.0" y="897.0" type="curve"/>
      <point x="334.0" y="897.0" type="line"/>
      <point x="330.0" y="839.0"/>
      <point x="282.0" y="792.0"/>
      <point x="225.0" y="792.0" type="curve" smooth="yes"/>
      <point x="203.0" y="792.0"/>
      <point x="187.0" y="797.0"/>
      <point x="157.0" y="811.0" type="curve"/>
      <point x="120.0" y="830.0"/>
      <point x="100" y="848"/>
      <point x="86" y="848" type="curve" smooth="yes"/>
      <point x="62" y="848"/>
      <point x="46.0" y="823.0"/>
      <point x="33.0" y="792.0" type="curve"/>
      <point x="4.0" y="792.0" type="line"/>
      <point x="18.0" y="857.0"/>
      <point x="55.0" y="892.0"/>
      <point x="110.0" y="892.0" type="curve" smooth="yes"/>
      <point x="134.0" y="892.0"/>
      <point x="146.0" y="888.0"/>
      <point x="199.0" y="862.0" type="curve" smooth="yes"/>
      <point x="223.0" y="851.0"/>
      <point x="227" y="833"/>
      <point x="239" y="833" type="curve" smooth="yes"/>
      <point x="267" y="833"/>
      <point x="290.0" y="860.0"/>
    </contour>
    <contour>
      <point x="216.0" y="569.0" type="curve" smooth="yes"/>
      <point x="216.0" y="120.0" type="line" smooth="yes"/>
      <point x="216.0" y="41.0"/>
      <point x="221.0" y="33.0"/>
      <point x="267.0" y="30.0" type="curve" smooth="yes"/>
      <point x="315.0" y="27.0" type="line"/>
      <point x="315.0" y="-3.0" type="line"/>
      <point x="256.0" y="-1.0"/>
      <point x="220" y="16"/>
      <point x="168" y="16" type="curve" smooth="yes"/>
      <point x="116" y="16"/>
      <point x="81.0" y="-1.0"/>
      <point x="22.0" y="-3.0" type="curve"/>
      <point x="22.0" y="27.0" type="line"/>
      <point x="70.0" y="30.0" type="line" smooth="yes"/>
      <point x="116.0" y="33.0"/>
      <point x="121.0" y="41.0"/>
      <point x="121.0" y="120.0" type="curve" smooth="yes"/>
      <point x="121.0" y="569.0" type="line" smooth="yes"/>
      <point x="121.0" y="648.0"/>
      <point x="116.0" y="656.0"/>
      <point x="70.0" y="659.0" type="curve" smooth="yes"/>
      <point x="22.0" y="662.0" type="line"/>
      <point x="22.0" y="692.0" type="line"/>
      <point x="94.0" y="690.0"/>
      <point x="118" y="671"/>
      <point x="168" y="671" type="curve" smooth="yes"/>
      <point x="220" y="671"/>
      <point x="242.0" y="689.0"/>
      <point x="315.0" y="692.0" type="curve"/>
      <point x="315.0" y="662.0" type="line"/>
      <point x="267.0" y="659.0" type="line" smooth="yes"/>
      <point x="221.0" y="656.0"/>
      <point x="216.0" y="648.0"/>
    </contour>
  </outline>
</glyph>
<glyph name="Imacron" format="1">
  <advance width="337"/>
  <unicode hex="012A"/>
  <outline>
    <contour>
      <point x="216.0" y="569.0" type="curve" smooth="yes"/>
      <point x="216.0" y="120.0" type="line" smooth="yes"/>
      <point x="216.0" y="41.0"/>
      <point x="221.0" y="33.0"/>
      <point x="267.0" y="30.0" type="curve" smooth="yes"/>
      <point x="315.0" y="27.0" type="line"/>
      <point x="315.0" y="-3.0" type="line"/>
      <point x="256.0" y="-1.0"/>
      <point x="220.0" y="17.0"/>
      <point x="168.0" y="17.0" type="curve" smooth="yes"/>
      <point x="116.0" y="17.0"/>
      <point x="81.0" y="-1.0"/>
      <point x="22.0" y="-3.0" type="curve"/>
      <point x="22.0" y="27.0" type="line"/>
      <point x="70.0" y="30.0" type="line" smooth="yes"/>
      <point x="116.0" y="33.0"/>
      <point x="121.0" y="41.0"/>
      <point x="121.0" y="120.0" type="curve" smooth="yes"/>
      <point x="121.0" y="569.0" type="line" smooth="yes"/>
      <point x="121.0" y="648.0"/>
      <point x="116.0" y="656.0"/>
      <point x="70.0" y="659.0" type="curve" smooth="yes"/>
      <point x="22.0" y="662.0" type="line"/>
      <point x="22.0" y="692.0" type="line"/>
      <point x="94.0" y="690.0"/>
      <point x="118.0" y="676.0"/>
      <point x="168.0" y="676.0" type="curve" smooth="yes"/>
      <point x="220.0" y="676.0"/>
      <point x="242.0" y="689.0"/>
      <point x="315.0" y="692.0" type="curve"/>
      <point x="315.0" y="662.0" type="line"/>
      <point x="267.0" y="659.0" type="line" smooth="yes"/>
      <point x="221.0" y="656.0"/>
      <point x="216.0" y="648.0"/>
    </contour>
    <contour>
      <point x="272" y="788" type="line"/>
      <point x="13.0" y="769.0" type="line"/>
      <point x="13.0" y="822.0" type="line"/>
      <point x="325.0" y="822.0" type="line"/>
    </contour>
  </outline>
</glyph>
<glyph name="Iogonek" format="1">
  <advance width="337"/>
  <unicode hex="012E"/>
  <outline>
    <contour>
      <point x="315.0" y="27.0" type="line"/>
      <point x="315.0" y="-3.0" type="line"/>
      <point x="296.0" y="-1.0"/>
      <point x="288.0" y="-1.0"/>
      <point x="279.0" y="-1.0" type="curve" smooth="yes"/>
      <point x="236.0" y="-1.0"/>
      <point x="207.0" y="-26.0"/>
      <point x="207.0" y="-64.0" type="curve" smooth="yes"/>
      <point x="207.0" y="-85.0"/>
      <point x="226.0" y="-104.0"/>
      <point x="247.0" y="-104.0" type="curve" smooth="yes"/>
      <point x="270.0" y="-104.0"/>
      <point x="294.0" y="-92.0"/>
      <point x="321.0" y="-68.0" type="curve"/>
      <point x="337.0" y="-89.0" type="line"/>
      <point x="291.0" y="-129.0"/>
      <point x="260.0" y="-145.0"/>
      <point x="225.0" y="-145.0" type="curve" smooth="yes"/>
      <point x="189.0" y="-145.0"/>
      <point x="160.0" y="-117.0"/>
      <point x="160.0" y="-81.0" type="curve" smooth="yes"/>
      <point x="160.0" y="-50.0"/>
      <point x="176.0" y="-23.0"/>
      <point x="210.0" y="0.0" type="curve"/>
      <point x="165" y="15" type="line" smooth="yes"/>
      <point x="118" y="31"/>
      <point x="81.0" y="-1.0"/>
      <point x="22.0" y="-3.0" type="curve"/>
      <point x="22.0" y="27.0" type="line"/>
      <point x="70.0" y="30.0" type="line" smooth="yes"/>
      <point x="116.0" y="33.0"/>
      <point x="121.0" y="41.0"/>
      <point x="121.0" y="120.0" type="curve" smooth="yes"/>
      <point x="121.0" y="569.0" type="line" smooth="yes"/>
      <point x="121.0" y="648.0"/>
      <point x="116.0" y="656.0"/>
      <point x="70.0" y="659.0" type="curve" smooth="yes"/>
      <point x="22.0" y="662.0" type="line"/>
      <point x="22.0" y="692.0" type="line"/>
      <point x="94.0" y="690.0"/>
      <point x="118.0" y="672.0"/>
      <point x="168.0" y="672.0" type="curve" smooth="yes"/>
      <point x="220.0" y="672.0"/>
      <point x="242.0" y="689.0"/>
      <point x="315.0" y="692.0" type="curve"/>
      <point x="315.0" y="662.0" type="line"/>
      <point x="267.0" y="659.0" type="line" smooth="yes"/>
      <point x="221.0" y="656.0"/>
      <point x="216.0" y="648.0"/>
      <point x="216.0" y="569.0" type="curve" smooth="yes"/>
      <point x="216.0" y="120.0" type="line" smooth="yes"/>
      <point x="216.0" y="41.0"/>
      <point x="221.0" y="33.0"/>
      <point x="267.0" y="30.0" type="curve" smooth="yes"/>
    </contour>
  </outline>
</glyph>
<glyph name="Jcircumflex" format="1">
  <advance width="333"/>
  <unicode hex="0134"/>
  <outline>
    <contour>
      <point x="117.0" y="959.0" type="line"/>
      <point x="179.0" y="959.0" type="line"/>
      <point x="304.0" y="792.0" type="line"/>
      <point x="269.0" y="792.0" type="line"/>
      <point x="148.0" y="926.0" type="line"/>
      <point x="27.0" y="792.0" type="line"/>
      <point x="-8.0" y="792.0" type="line"/>
    </contour>
    <contour>
      <point x="-10.0" y="-192.0" type="line"/>
      <point x="-15.0" y="-116.0" type="line"/>
      <point x="-4.0" y="-110.0" type="line"/>
      <point x="19.0" y="-124.0"/>
      <point x="39.0" y="-130.0"/>
      <point x="63.0" y="-130.0" type="curve" smooth="yes"/>
      <point x="103.0" y="-130.0"/>
      <point x="117.0" y="-101.0"/>
      <point x="117.0" y="-17.0" type="curve" smooth="yes"/>
      <point x="117.0" y="569.0" type="line" smooth="yes"/>
      <point x="117.0" y="648.0"/>
      <point x="112.0" y="656.0"/>
      <point x="66.0" y="659.0" type="curve" smooth="yes"/>
      <point x="18.0" y="662.0" type="line"/>
      <point x="18.0" y="692.0" type="line"/>
      <point x="90.0" y="690.0"/>
      <point x="114.0" y="669.0"/>
      <point x="164.0" y="669.0" type="curve" smooth="yes"/>
      <point x="216.0" y="669.0"/>
      <point x="238.0" y="689.0"/>
      <point x="311.0" y="692.0" type="curve"/>
      <point x="311.0" y="662.0" type="line"/>
      <point x="263.0" y="659.0" type="line" smooth="yes"/>
      <point x="217.0" y="656.0"/>
      <point x="212.0" y="648.0"/>
      <point x="212.0" y="569.0" type="curve" smooth="yes"/>
      <point x="212.0" y="117.0" type="line" smooth="yes"/>
      <point x="212.0" y="-4.0"/>
      <point x="199.0" y="-54.0"/>
      <point x="150.0" y="-114.0" type="curve" smooth="yes"/>
      <point x="111.0" y="-163.0"/>
      <point x="48.0" y="-200.0"/>
      <point x="14.0" y="-195.0" type="curve" smooth="yes"/>
      <point x="7.0" y="-194.0" type="line"/>
    </contour>
  </outline>
</glyph>
<glyph name="Kcommaaccent" format="1">
  <advance width="726"/>
  <unicode hex="0136"/>
  <outline>
    <contour>
      <point x="216.0" y="325.0" type="line"/>
      <point x="216.0" y="120.0" type="line" smooth="yes"/>
      <point x="216.0" y="41.0"/>
      <point x="221.0" y="33.0"/>
      <point x="267.0" y="30.0" type="curve" smooth="yes"/>
      <point x="315.0" y="27.0" type="line"/>
      <point x="315.0" y="-3.0" type="line"/>
      <point x="256.0" y="-1.0"/>
      <point x="220.0" y="17.0"/>
      <point x="168.0" y="17.0" type="curve" smooth="yes"/>
      <point x="116.0" y="17.0"/>
      <point x="81.0" y="-1.0"/>
      <point x="22.0" y="-3.0" type="curve"/>
      <point x="22.0" y="27.0" type="line"/>
      <point x="70.0" y="30.0" type="line" smooth="yes"/>
      <point x="116.0" y="33.0"/>
      <point x="121.0" y="41.0"/>
      <point x="121.0" y="120.0" type="curve" smooth="yes"/>
      <point x="121.0" y="569.0" type="line" smooth="yes"/>
      <point x="121.0" y="648.0"/>
      <point x="116.0" y="656.0"/>
      <point x="70.0" y="659.0" type="curve" smooth="yes"/>
      <point x="22.0" y="662.0" type="line"/>
      <point x="22.0" y="692.0" type="line"/>
      <point x="94.0" y="690.0"/>
      <point x="118.0" y="672.0"/>
      <point x="168.0" y="672.0" type="curve" smooth="yes"/>
      <point x="220.0" y="672.0"/>
      <point x="242.0" y="689.0"/>
      <point x="315.0" y="692.0" type="curve"/>
      <point x="315.0" y="662.0" type="line"/>
      <point x="267.0" y="659.0" type="line" smooth="yes"/>
      <point x="221.0" y="656.0"/>
      <point x="216.0" y="648.0"/>
      <point x="216.0" y="569.0" type="curve" smooth="yes"/>
      <point x="216.0" y="355.0" type="line"/>
      <point x="494.0" y="626.0" type="line" smooth="yes"/>
      <point x="510.0" y="642.0"/>
      <point x="523.0" y="659.0"/>
      <point x="523.0" y="665.0" type="curve" smooth="yes"/>
      <point x="523.0" y="692.0" type="line"/>
      <point x="581.0" y="690.0"/>
      <point x="598" y="677"/>
      <point x="612" y="677" type="curve" smooth="yes"/>
      <point x="629" y="677"/>
      <point x="629.0" y="689.0"/>
      <point x="692.0" y="692.0" type="curve"/>
      <point x="692.0" y="662.0" type="line"/>
      <point x="650.0" y="660.0" type="line" smooth="yes"/>
      <point x="624.0" y="659.0"/>
      <point x="599.0" y="646.0"/>
      <point x="572.0" y="622.0" type="curve" smooth="yes"/>
      <point x="306.0" y="382.0" type="line"/>
      <point x="636.0" y="70.0" type="line" smooth="yes"/>
      <point x="667.0" y="41.0"/>
      <point x="683.0" y="30.0"/>
      <point x="698.0" y="29.0" type="curve" smooth="yes"/>
      <point x="719.0" y="27.0" type="line"/>
      <point x="719.0" y="-3.0" type="line"/>
      <point x="669.0" y="0.0"/>
      <point x="667" y="19"/>
      <point x="654" y="19" type="curve" smooth="yes"/>
      <point x="644" y="19"/>
      <point x="644.0" y="0.0"/>
      <point x="574.0" y="-3.0" type="curve"/>
      <point x="226.0" y="332.0" type="line"/>
    </contour>
    <contour>
      <point x="303.0" y="-253.0" type="curve"/>
      <point x="264.0" y="-274.0" type="line"/>
      <point x="250.0" y="-265.0" type="line"/>
      <point x="293.0" y="-196.0"/>
      <point x="326" y="-155"/>
      <point x="332" y="-83" type="curve"/>
      <point x="379" y="-70"/>
      <point x="375.0" y="-48.0"/>
      <point x="408.0" y="-37.0" type="curve"/>
      <point x="419.0" y="-49.0" type="line"/>
      <point x="389.0" y="-127.0"/>
      <point x="355.0" y="-186.0"/>
    </contour>
  </outline>
</glyph>
